<svg width="312" height="71" viewBox="0 0 312 71" fill="none" xmlns="http://www.w3.org/2000/svg">
<path opacity="0.3" d="M49.44 69L48.4913 69.3162L48.7192 70H49.44V69ZM45.408 56.904L46.3567 56.5878L46.1288 55.904H45.408V56.904ZM18.624 56.904V55.904H17.9032L17.6753 56.5878L18.624 56.904ZM14.592 69V70H15.3128L15.5407 69.3162L14.592 69ZM0.288 69L-0.655858 68.6696L-1.12148 70H0.288V69ZM23.808 1.8V0.799995H23.0985L22.8641 1.46964L23.808 1.8ZM40.224 1.8L41.1674 1.46844L40.9325 0.799995H40.224V1.8ZM63.84 69V70H65.2514L64.7834 68.6684L63.84 69ZM22.848 44.52L21.9 44.2018L21.4575 45.52H22.848V44.52ZM41.28 44.52V45.52H42.6705L42.228 44.2018L41.28 44.52ZM32.064 17.064L33.012 16.7458L32.064 13.9215L31.116 16.7458L32.064 17.064ZM50.3887 68.6838L46.3567 56.5878L44.4593 57.2202L48.4913 69.3162L50.3887 68.6838ZM45.408 55.904H18.624V57.904H45.408V55.904ZM17.6753 56.5878L13.6433 68.6838L15.5407 69.3162L19.5727 57.2202L17.6753 56.5878ZM14.592 68H0.288V70H14.592V68ZM1.23186 69.3304L24.7519 2.13035L22.8641 1.46964L-0.655858 68.6696L1.23186 69.3304ZM23.808 2.8H40.224V0.799995H23.808V2.8ZM39.2806 2.13155L62.8966 69.3316L64.7834 68.6684L41.1674 1.46844L39.2806 2.13155ZM63.84 68H49.44V70H63.84V68ZM22.848 45.52H41.28V43.52H22.848V45.52ZM42.228 44.2018L33.012 16.7458L31.116 17.3822L40.332 44.8382L42.228 44.2018ZM31.116 16.7458L21.9 44.2018L23.796 44.8382L33.012 17.3822L31.116 16.7458ZM110.973 34.152L110.347 33.3723L109.206 34.2883L110.474 35.0185L110.973 34.152ZM113.757 63.528L113.086 62.7865L113.757 63.528ZM70.365 69H69.365V70H70.365V69ZM70.365 1.8V0.799995H69.365V1.8H70.365ZM111.357 7.17599L110.681 7.91265L110.687 7.91841L110.693 7.92407L111.357 7.17599ZM83.613 14.184V13.184H82.613V14.184H83.613ZM83.613 28.968H82.613V29.968H83.613V28.968ZM101.949 26.856L101.242 26.1489L101.234 26.1571L101.226 26.1655L101.949 26.856ZM104.445 54.408L105.152 55.1151L105.16 55.1076L105.167 55.0999L104.445 54.408ZM104.445 43.08L103.723 43.7719L103.73 43.7796L103.738 43.7871L104.445 43.08ZM83.613 40.776V39.776H82.613V40.776H83.613ZM83.613 56.616H82.613V57.616H83.613V56.616ZM110.474 35.0185C116.049 38.2303 118.805 43.0182 118.805 49.512H120.805C120.805 42.3099 117.673 36.8577 111.472 33.2855L110.474 35.0185ZM118.805 49.512C118.805 54.9406 116.898 59.338 113.086 62.7865L114.428 64.2695C118.68 60.422 120.805 55.4754 120.805 49.512H118.805ZM113.086 62.7865C109.254 66.2537 104.539 68 98.877 68V70C104.991 70 110.196 68.0983 114.428 64.2695L113.086 62.7865ZM98.877 68H70.365V70H98.877V68ZM71.365 69V1.8H69.365V69H71.365ZM70.365 2.8H96.861V0.799995H70.365V2.8ZM96.861 2.8C102.394 2.8 106.978 4.51337 110.681 7.91265L112.033 6.43934C107.928 2.67062 102.848 0.799995 96.861 0.799995V2.8ZM110.693 7.92407C114.438 11.2463 116.309 15.4817 116.309 20.712H118.309C118.309 14.9343 116.212 10.1457 112.021 6.42792L110.693 7.92407ZM116.309 20.712C116.309 25.9867 114.327 30.1761 110.347 33.3723L111.599 34.9317C116.067 31.3439 118.309 26.5733 118.309 20.712H116.309ZM96.861 13.184H83.613V15.184H96.861V13.184ZM82.613 14.184V28.968H84.613V14.184H82.613ZM83.613 29.968H96.861V27.968H83.613V29.968ZM96.861 29.968C99.1663 29.968 101.129 29.1634 102.672 27.5465L101.226 26.1655C100.081 27.3646 98.6517 27.968 96.861 27.968V29.968ZM102.656 27.5631C104.264 25.9553 105.061 23.9354 105.061 21.576H103.061C103.061 23.4406 102.45 24.9407 101.242 26.1489L102.656 27.5631ZM105.061 21.576C105.061 19.2308 104.306 17.2162 102.768 15.6055L101.322 16.9865C102.472 18.1918 103.061 19.6972 103.061 21.576H105.061ZM102.768 15.6055C101.219 13.9819 99.2205 13.184 96.861 13.184V15.184C98.7255 15.184 100.183 15.7941 101.322 16.9865L102.768 15.6055ZM98.877 57.616C101.36 57.616 103.477 56.7898 105.152 55.1151L103.738 53.7009C102.469 54.9702 100.874 55.616 98.877 55.616V57.616ZM105.167 55.0999C106.833 53.3615 107.653 51.1864 107.653 48.648H105.653C105.653 50.7176 105.001 52.3825 103.723 53.7161L105.167 55.0999ZM107.653 48.648C107.653 46.1651 106.827 44.0476 105.152 42.3729L103.738 43.7871C105.007 45.0564 105.653 46.6509 105.653 48.648H107.653ZM105.167 42.3881C103.495 40.6439 101.373 39.776 98.877 39.776V41.776C100.861 41.776 102.451 42.4441 103.723 43.7719L105.167 42.3881ZM98.877 39.776H83.613V41.776H98.877V39.776ZM82.613 40.776V56.616H84.613V40.776H82.613ZM83.613 57.616H98.877V55.616H83.613V57.616ZM185.034 60.264L185.738 60.9745L185.741 60.9711L185.034 60.264ZM135.498 60.264L134.788 60.9678L134.794 60.9744L135.498 60.264ZM135.498 10.632L134.791 9.92489L135.498 10.632ZM185.034 10.632L184.327 11.3391L184.33 11.3424L185.034 10.632ZM144.81 51.24L144.103 51.9471L144.108 51.9526L144.81 51.24ZM175.722 51.24L176.424 51.9526L176.429 51.9471L175.722 51.24ZM175.722 19.56L176.429 18.8529L175.722 19.56ZM144.81 19.56L144.103 18.8529L144.81 19.56ZM184.33 59.5536C177.737 66.0842 169.736 69.344 160.266 69.344V71.344C170.252 71.344 178.763 67.8838 185.738 60.9744L184.33 59.5536ZM160.266 69.344C150.796 69.344 142.795 66.0842 136.202 59.5536L134.794 60.9744C141.769 67.8838 150.28 71.344 160.266 71.344V69.344ZM136.208 59.5602C129.679 52.9688 126.418 44.9359 126.418 35.4H124.418C124.418 45.4481 127.877 53.9912 134.788 60.9678L136.208 59.5602ZM126.418 35.4C126.418 25.8642 129.679 17.8653 136.205 11.3391L134.791 9.92489C127.877 16.8387 124.418 25.3518 124.418 35.4H126.418ZM136.205 11.3391C142.799 4.74556 150.799 1.456 160.266 1.456V-0.544004C150.277 -0.544004 141.765 2.95043 134.791 9.92489L136.205 11.3391ZM160.266 1.456C169.733 1.456 177.733 4.74556 184.327 11.3391L185.741 9.92489C178.767 2.95043 170.255 -0.544004 160.266 -0.544004V1.456ZM184.33 11.3424C190.919 17.8694 194.21 25.8672 194.21 35.4H196.21C196.21 25.3488 192.717 16.8346 185.738 9.92155L184.33 11.3424ZM194.21 35.4C194.21 44.9329 190.919 52.9647 184.327 59.5569L185.741 60.9711C192.717 53.9953 196.21 45.4511 196.21 35.4H194.21ZM144.108 51.9526C148.466 56.2432 153.875 58.384 160.266 58.384V56.384C154.369 56.384 149.474 54.4288 145.512 50.5274L144.108 51.9526ZM160.266 58.384C166.657 58.384 172.066 56.2432 176.424 51.9526L175.02 50.5274C171.058 54.4288 166.163 56.384 160.266 56.384V58.384ZM176.429 51.9471C180.794 47.5822 182.962 42.0395 182.962 35.4H180.962C180.962 41.5605 178.97 46.5778 175.015 50.5329L176.429 51.9471ZM182.962 35.4C182.962 28.7605 180.794 23.2178 176.429 18.8529L175.015 20.2671C178.97 24.2222 180.962 29.2395 180.962 35.4H182.962ZM176.429 18.8529C172.073 14.4963 166.662 12.32 160.266 12.32V14.32C166.158 14.32 171.051 16.3037 175.015 20.2671L176.429 18.8529ZM160.266 12.32C153.87 12.32 148.46 14.4963 144.103 18.8529L145.517 20.2671C149.48 16.3037 154.374 14.32 160.266 14.32V12.32ZM144.103 18.8529C139.738 23.2178 137.57 28.7605 137.57 35.4H139.57C139.57 29.2395 141.562 24.2222 145.517 20.2671L144.103 18.8529ZM137.57 35.4C137.57 42.0395 139.738 47.5822 144.103 51.9471L145.517 50.5329C141.562 46.5778 139.57 41.5605 139.57 35.4H137.57ZM210.676 64.008L210.016 64.7587L210.676 64.008ZM203.477 1.8V0.799995H202.477V1.8H203.477ZM216.628 1.8H217.628V0.799995H216.628V1.8ZM219.605 54.312L218.886 55.0078L218.892 55.0135L218.897 55.0191L219.605 54.312ZM238.517 54.312L237.809 53.6049L237.804 53.6105L237.798 53.6162L238.517 54.312ZM241.589 1.8V0.799995H240.589V1.8H241.589ZM254.837 1.8H255.837V0.799995H254.837V1.8ZM247.637 64.008L248.297 64.7587L247.637 64.008ZM229.109 69.344C221.82 69.344 215.924 67.2937 211.337 63.2573L210.016 64.7587C215.029 69.1703 221.421 71.344 229.109 71.344V69.344ZM211.337 63.2573C206.778 59.2455 204.477 53.8683 204.477 47.016H202.477C202.477 54.3717 204.975 60.3225 210.016 64.7587L211.337 63.2573ZM204.477 47.016V1.8H202.477V47.016H204.477ZM203.477 2.8H216.628V0.799995H203.477V2.8ZM215.628 1.8V45.96H217.628V1.8H215.628ZM215.628 45.96C215.628 49.6754 216.681 52.7317 218.886 55.0078L220.323 53.6162C218.56 51.7963 217.628 49.2846 217.628 45.96H215.628ZM218.897 55.0191C221.207 57.3284 224.682 58.384 229.109 58.384V56.384C224.959 56.384 222.098 55.3916 220.312 53.6049L218.897 55.0191ZM229.109 58.384C233.532 58.384 236.985 57.3297 239.235 55.0078L237.798 53.6162C236.08 55.3903 233.261 56.384 229.109 56.384V58.384ZM239.224 55.0191C241.498 52.7445 242.589 49.6843 242.589 45.96H240.589C240.589 49.2757 239.631 51.7835 237.809 53.6049L239.224 55.0191ZM242.589 45.96V1.8H240.589V45.96H242.589ZM241.589 2.8H254.837V0.799995H241.589V2.8ZM253.837 1.8V47.016H255.837V1.8H253.837ZM253.837 47.016C253.837 53.8683 251.535 59.2455 246.976 63.2573L248.297 64.7587C253.338 60.3225 255.837 54.3717 255.837 47.016H253.837ZM246.976 63.2573C242.391 67.2924 236.464 69.344 229.109 69.344V71.344C236.857 71.344 243.282 69.1716 248.297 64.7587L246.976 63.2573ZM311.219 1.8H312.219V0.799995H311.219V1.8ZM311.219 14.472V15.472H312.219V14.472H311.219ZM293.075 14.472V13.472H292.075V14.472H293.075ZM293.075 69V70H294.075V69H293.075ZM279.827 69H278.827V70H279.827V69ZM279.827 14.472H280.827V13.472H279.827V14.472ZM261.779 14.472H260.779V15.472H261.779V14.472ZM261.779 1.8V0.799995H260.779V1.8H261.779ZM310.219 1.8V14.472H312.219V1.8H310.219ZM311.219 13.472H293.075V15.472H311.219V13.472ZM292.075 14.472V69H294.075V14.472H292.075ZM293.075 68H279.827V70H293.075V68ZM280.827 69V14.472H278.827V69H280.827ZM279.827 13.472H261.779V15.472H279.827V13.472ZM262.779 14.472V1.8H260.779V14.472H262.779ZM261.779 2.8H311.219V0.799995H261.779V2.8Z" fill="white"/>
</svg>
