<svg width="487" height="71" viewBox="0 0 487 71" fill="none" xmlns="http://www.w3.org/2000/svg">
<path opacity="0.1" d="M10.056 60.264L10.7699 59.5637L10.056 60.264ZM10.056 10.536L10.7665 11.2397L10.7699 11.2363L10.056 10.536ZM51.912 4.776L51.4217 5.64757L51.4282 5.65119L51.4347 5.65472L51.912 4.776ZM64.008 16.296L64.5096 17.1611L65.3826 16.6549L64.8685 15.7865L64.008 16.296ZM52.584 22.92L51.709 23.4041L52.2029 24.2969L53.0856 23.7851L52.584 22.92ZM45.48 15.912L44.9897 16.7836L44.9967 16.7875L45.0037 16.7913L45.48 15.912ZM19.272 19.464L18.5593 18.7625L18.5538 18.7682L19.272 19.464ZM19.272 51.24L18.5537 51.9358L18.5593 51.9415L19.272 51.24ZM45.48 54.888L45.9563 55.7673L45.9626 55.7638L45.48 54.888ZM52.584 47.88L53.0856 47.0149L52.1963 46.4992L51.7054 47.4025L52.584 47.88ZM64.008 54.504L64.8685 55.0135L65.3826 54.1451L64.5096 53.6389L64.008 54.504ZM52.008 66.12L52.4899 66.9963L52.4983 66.9916L52.008 66.12ZM35.112 69.344C25.2464 69.344 17.1589 66.0768 10.7699 59.5637L9.34213 60.9643C16.1371 67.8912 24.7536 71.344 35.112 71.344V69.344ZM10.7699 59.5637C4.37062 53.0402 1.168 45.0078 1.168 35.4H-0.832C-0.832 45.5042 2.55738 54.0478 9.34213 60.9643L10.7699 59.5637ZM1.168 35.4C1.168 25.7263 4.37174 17.6965 10.7665 11.2397L9.34549 9.83232C2.55626 16.6875 -0.832 25.2337 -0.832 35.4H1.168ZM10.7699 11.2363C17.1589 4.72321 25.2464 1.456 35.112 1.456V-0.544004C24.7536 -0.544004 16.1371 2.90878 9.34213 9.83572L10.7699 11.2363ZM35.112 1.456C41.0265 1.456 46.4568 2.85479 51.4217 5.64757L52.4023 3.90442C47.1272 0.937206 41.3575 -0.544004 35.112 -0.544004V1.456ZM51.4347 5.65472C56.4672 8.38844 60.3637 12.1039 63.1475 16.8055L64.8685 15.7865C61.8923 10.7601 57.7248 6.79556 52.3893 3.89727L51.4347 5.65472ZM63.5064 15.4309L52.0824 22.0549L53.0856 23.7851L64.5096 17.1611L63.5064 15.4309ZM53.459 22.4359C51.701 19.2579 49.1933 16.7861 45.9563 15.0327L45.0037 16.7913C47.9107 18.3659 50.139 20.566 51.709 23.4041L53.459 22.4359ZM45.9703 15.0404C42.7354 13.2208 39.1079 12.32 35.112 12.32V14.32C38.7961 14.32 42.0806 15.1472 44.9897 16.7836L45.9703 15.0404ZM35.112 12.32C28.3558 12.32 22.8055 14.449 18.5593 18.7625L19.9847 20.1655C23.8025 16.287 28.8122 14.32 35.112 14.32V12.32ZM18.5538 18.7682C14.3786 23.078 12.32 28.6529 12.32 35.4H14.32C14.32 29.0911 16.2294 24.042 19.9902 20.1598L18.5538 18.7682ZM12.32 35.4C12.32 42.0862 14.3805 47.6279 18.5538 51.9358L19.9902 50.5442C16.2275 46.6601 14.32 41.6418 14.32 35.4H12.32ZM18.5593 51.9415C22.8055 56.255 28.3558 58.384 35.112 58.384V56.384C28.8122 56.384 23.8025 54.417 19.9847 50.5385L18.5593 51.9415ZM35.112 58.384C39.1015 58.384 42.7239 57.5182 45.9563 55.7673L45.0037 54.0087C42.0921 55.5858 38.8025 56.384 35.112 56.384V58.384ZM45.9626 55.7638C49.254 53.9502 51.7651 51.481 53.4626 48.3575L51.7054 47.4025C50.2029 50.167 47.9781 52.3698 44.9974 54.0122L45.9626 55.7638ZM52.0824 48.7451L63.5064 55.3691L64.5096 53.6389L53.0856 47.0149L52.0824 48.7451ZM63.1475 53.9945C60.3606 58.7013 56.4909 62.451 51.5177 65.2484L52.4983 66.9916C57.7651 64.029 61.8954 60.0347 64.8685 55.0135L63.1475 53.9945ZM51.5261 65.2438C46.5614 67.9744 41.0965 69.344 35.112 69.344V71.344C41.4155 71.344 47.2146 69.8976 52.4899 66.9962L51.5261 65.2438ZM128.034 60.264L128.738 60.9745L128.741 60.9711L128.034 60.264ZM78.498 60.264L77.7875 60.9678L77.7943 60.9744L78.498 60.264ZM78.498 10.632L77.7909 9.92489L78.498 10.632ZM128.034 10.632L127.327 11.3391L127.33 11.3424L128.034 10.632ZM87.81 51.24L87.1029 51.9471L87.1084 51.9526L87.81 51.24ZM118.722 51.24L119.424 51.9526L119.429 51.9471L118.722 51.24ZM118.722 19.56L119.429 18.8529L118.722 19.56ZM87.81 19.56L87.1029 18.8529L87.81 19.56ZM127.33 59.5536C120.737 66.0842 112.736 69.344 103.266 69.344V71.344C113.252 71.344 121.763 67.8838 128.738 60.9744L127.33 59.5536ZM103.266 69.344C93.796 69.344 85.7946 66.0842 79.2018 59.5536L77.7943 60.9744C84.7694 67.8838 93.28 71.344 103.266 71.344V69.344ZM79.2085 59.5602C72.6792 52.9688 69.418 44.9359 69.418 35.4H67.418C67.418 45.4481 70.8768 53.9912 77.7876 60.9678L79.2085 59.5602ZM69.418 35.4C69.418 25.8642 72.6789 17.8653 79.2051 11.3391L77.7909 9.92489C70.8771 16.8387 67.418 25.3518 67.418 35.4H69.418ZM79.2051 11.3391C85.7987 4.74556 93.7991 1.456 103.266 1.456V-0.544004C93.2769 -0.544004 84.7654 2.95043 77.7909 9.92489L79.2051 11.3391ZM103.266 1.456C112.733 1.456 120.733 4.74556 127.327 11.3391L128.741 9.92489C121.767 2.95043 113.255 -0.544004 103.266 -0.544004V1.456ZM127.33 11.3424C133.919 17.8694 137.21 25.8672 137.21 35.4H139.21C139.21 25.3488 135.717 16.8346 128.738 9.92155L127.33 11.3424ZM137.21 35.4C137.21 44.9329 133.919 52.9647 127.327 59.5569L128.741 60.9711C135.717 53.9953 139.21 45.4511 139.21 35.4H137.21ZM87.1084 51.9526C91.4661 56.2432 96.8747 58.384 103.266 58.384V56.384C97.3693 56.384 92.4739 54.4288 88.5116 50.5274L87.1084 51.9526ZM103.266 58.384C109.657 58.384 115.066 56.2432 119.424 51.9526L118.02 50.5274C114.058 54.4288 109.163 56.384 103.266 56.384V58.384ZM119.429 51.9471C123.794 47.5822 125.962 42.0395 125.962 35.4H123.962C123.962 41.5605 121.97 46.5778 118.015 50.5329L119.429 51.9471ZM125.962 35.4C125.962 28.7605 123.794 23.2178 119.429 18.8529L118.015 20.2671C121.97 24.2222 123.962 29.2395 123.962 35.4H125.962ZM119.429 18.8529C115.073 14.4963 109.662 12.32 103.266 12.32V14.32C109.158 14.32 114.051 16.3037 118.015 20.2671L119.429 18.8529ZM103.266 12.32C96.8699 12.32 91.4595 14.4963 87.1029 18.8529L88.5171 20.2671C92.4805 16.3037 97.3741 14.32 103.266 14.32V12.32ZM87.1029 18.8529C82.7379 23.2178 80.57 28.7605 80.57 35.4H82.57C82.57 29.2395 84.5621 24.2222 88.5171 20.2671L87.1029 18.8529ZM80.57 35.4C80.57 42.0395 82.7379 47.5822 87.1029 51.9471L88.5171 50.5329C84.5621 46.5778 82.57 41.5605 82.57 35.4H80.57ZM186.401 1.8V0.799995H185.401V1.8H186.401ZM199.649 1.8H200.649V0.799995H199.649V1.8ZM199.649 69V70H200.649V69H199.649ZM189.569 69L188.75 69.574L189.049 70H189.569V69ZM160.769 27.912L161.588 27.338L159.769 24.7431V27.912H160.769ZM160.769 69V70H161.769V69H160.769ZM147.521 69H146.521V70H147.521V69ZM147.521 1.8V0.799995H146.521V1.8H147.521ZM157.601 1.8L158.419 1.22512L158.121 0.799995H157.601V1.8ZM186.401 42.792L185.583 43.3669L187.401 45.9548V42.792H186.401ZM186.401 2.8H199.649V0.799995H186.401V2.8ZM198.649 1.8V69H200.649V1.8H198.649ZM199.649 68H189.569V70H199.649V68ZM190.388 68.426L161.588 27.338L159.95 28.486L188.75 69.574L190.388 68.426ZM159.769 27.912V69H161.769V27.912H159.769ZM160.769 68H147.521V70H160.769V68ZM148.521 69V1.8H146.521V69H148.521ZM147.521 2.8H157.601V0.799995H147.521V2.8ZM156.783 2.37487L185.583 43.3669L187.219 42.2171L158.419 1.22512L156.783 2.37487ZM187.401 42.792V1.8H185.401V42.792H187.401ZM256.563 1.8H257.563V0.799995H256.563V1.8ZM256.563 14.472V15.472H257.563V14.472H256.563ZM238.419 14.472V13.472H237.419V14.472H238.419ZM238.419 69V70H239.419V69H238.419ZM225.171 69H224.171V70H225.171V69ZM225.171 14.472H226.171V13.472H225.171V14.472ZM207.123 14.472H206.123V15.472H207.123V14.472ZM207.123 1.8V0.799995H206.123V1.8H207.123ZM255.563 1.8V14.472H257.563V1.8H255.563ZM256.563 13.472H238.419V15.472H256.563V13.472ZM237.419 14.472V69H239.419V14.472H237.419ZM238.419 68H225.171V70H238.419V68ZM226.171 69V14.472H224.171V69H226.171ZM225.171 13.472H207.123V15.472H225.171V13.472ZM208.123 14.472V1.8H206.123V14.472H208.123ZM207.123 2.8H256.563V0.799995H207.123V2.8ZM302.284 69L301.335 69.3162L301.563 70H302.284V69ZM298.252 56.904L299.2 56.5878L298.973 55.904H298.252V56.904ZM271.468 56.904V55.904H270.747L270.519 56.5878L271.468 56.904ZM267.436 69V70H268.157L268.384 69.3162L267.436 69ZM253.132 69L252.188 68.6696L251.722 70H253.132V69ZM276.652 1.8V0.799995H275.942L275.708 1.46964L276.652 1.8ZM293.068 1.8L294.011 1.46844L293.776 0.799995H293.068V1.8ZM316.684 69V70H318.095L317.627 68.6684L316.684 69ZM275.692 44.52L274.744 44.2018L274.301 45.52H275.692V44.52ZM294.124 44.52V45.52H295.514L295.072 44.2018L294.124 44.52ZM284.908 17.064L285.856 16.7458L284.908 13.9215L283.96 16.7458L284.908 17.064ZM303.232 68.6838L299.2 56.5878L297.303 57.2202L301.335 69.3162L303.232 68.6838ZM298.252 55.904H271.468V57.904H298.252V55.904ZM270.519 56.5878L266.487 68.6838L268.384 69.3162L272.416 57.2202L270.519 56.5878ZM267.436 68H253.132V70H267.436V68ZM254.076 69.3304L277.596 2.13035L275.708 1.46964L252.188 68.6696L254.076 69.3304ZM276.652 2.8H293.068V0.799995H276.652V2.8ZM292.124 2.13155L315.74 69.3316L317.627 68.6684L294.011 1.46844L292.124 2.13155ZM316.684 68H302.284V70H316.684V68ZM275.692 45.52H294.124V43.52H275.692V45.52ZM295.072 44.2018L285.856 16.7458L283.96 17.3822L293.176 44.8382L295.072 44.2018ZM283.96 16.7458L274.744 44.2018L276.64 44.8382L285.856 17.3822L283.96 16.7458ZM327.587 60.264L328.301 59.5637L327.587 60.264ZM327.587 10.536L328.298 11.2397L328.301 11.2363L327.587 10.536ZM369.443 4.776L368.953 5.64757L368.959 5.65119L368.966 5.65472L369.443 4.776ZM381.539 16.296L382.041 17.1611L382.914 16.6549L382.4 15.7865L381.539 16.296ZM370.115 22.92L369.24 23.4041L369.734 24.2969L370.617 23.7851L370.115 22.92ZM363.011 15.912L362.521 16.7836L362.528 16.7875L362.535 16.7913L363.011 15.912ZM336.803 19.464L336.091 18.7625L336.085 18.7682L336.803 19.464ZM336.803 51.24L336.085 51.9358L336.091 51.9415L336.803 51.24ZM363.011 54.888L363.488 55.7673L363.494 55.7638L363.011 54.888ZM370.115 47.88L370.617 47.0149L369.728 46.4992L369.237 47.4025L370.115 47.88ZM381.539 54.504L382.4 55.0135L382.914 54.1451L382.041 53.6389L381.539 54.504ZM369.539 66.12L370.021 66.9963L370.03 66.9916L369.539 66.12ZM352.643 69.344C342.778 69.344 334.69 66.0768 328.301 59.5637L326.873 60.9643C333.668 67.8912 342.285 71.344 352.643 71.344V69.344ZM328.301 59.5637C321.902 53.0402 318.699 45.0078 318.699 35.4H316.699C316.699 45.5042 320.089 54.0478 326.873 60.9643L328.301 59.5637ZM318.699 35.4C318.699 25.7263 321.903 17.6965 328.298 11.2397L326.877 9.83232C320.088 16.6875 316.699 25.2337 316.699 35.4H318.699ZM328.301 11.2363C334.69 4.72321 342.778 1.456 352.643 1.456V-0.544004C342.285 -0.544004 333.668 2.90878 326.873 9.83572L328.301 11.2363ZM352.643 1.456C358.558 1.456 363.988 2.85479 368.953 5.64757L369.934 3.90442C364.658 0.937206 358.889 -0.544004 352.643 -0.544004V1.456ZM368.966 5.65472C373.998 8.38844 377.895 12.1039 380.679 16.8055L382.4 15.7865C379.424 10.7601 375.256 6.79556 369.921 3.89727L368.966 5.65472ZM381.038 15.4309L369.614 22.0549L370.617 23.7851L382.041 17.1611L381.038 15.4309ZM370.99 22.4359C369.232 19.2579 366.725 16.7861 363.488 15.0327L362.535 16.7913C365.442 18.3659 367.67 20.566 369.24 23.4041L370.99 22.4359ZM363.502 15.0404C360.267 13.2208 356.639 12.32 352.643 12.32V14.32C356.327 14.32 359.612 15.1472 362.521 16.7836L363.502 15.0404ZM352.643 12.32C345.887 12.32 340.337 14.449 336.091 18.7625L337.516 20.1655C341.334 16.287 346.344 14.32 352.643 14.32V12.32ZM336.085 18.7682C331.91 23.078 329.851 28.6529 329.851 35.4H331.851C331.851 29.0911 333.761 24.042 337.521 20.1598L336.085 18.7682ZM329.851 35.4C329.851 42.0862 331.912 47.6279 336.085 51.9358L337.521 50.5442C333.759 46.6601 331.851 41.6418 331.851 35.4H329.851ZM336.091 51.9415C340.337 56.255 345.887 58.384 352.643 58.384V56.384C346.344 56.384 341.334 54.417 337.516 50.5385L336.091 51.9415ZM352.643 58.384C356.633 58.384 360.255 57.5182 363.488 55.7673L362.535 54.0087C359.623 55.5858 356.334 56.384 352.643 56.384V58.384ZM363.494 55.7638C366.785 53.9502 369.296 51.481 370.994 48.3575L369.237 47.4025C367.734 50.167 365.509 52.3698 362.529 54.0122L363.494 55.7638ZM369.614 48.7451L381.038 55.3691L382.041 53.6389L370.617 47.0149L369.614 48.7451ZM380.679 53.9945C377.892 58.7013 374.022 62.451 369.049 65.2484L370.03 66.9916C375.296 64.029 379.427 60.0347 382.4 55.0135L380.679 53.9945ZM369.057 65.2438C364.093 67.9744 358.628 69.344 352.643 69.344V71.344C358.947 71.344 364.746 69.8976 370.021 66.9962L369.057 65.2438ZM433.844 1.8H434.844V0.799995H433.844V1.8ZM433.844 14.472V15.472H434.844V14.472H433.844ZM415.7 14.472V13.472H414.7V14.472H415.7ZM415.7 69V70H416.7V69H415.7ZM402.452 69H401.452V70H402.452V69ZM402.452 14.472H403.452V13.472H402.452V14.472ZM384.404 14.472H383.404V15.472H384.404V14.472ZM384.404 1.8V0.799995H383.404V1.8H384.404ZM432.844 1.8V14.472H434.844V1.8H432.844ZM433.844 13.472H415.7V15.472H433.844V13.472ZM414.7 14.472V69H416.7V14.472H414.7ZM415.7 68H402.452V70H415.7V68ZM403.452 69V14.472H401.452V69H403.452ZM402.452 13.472H384.404V15.472H402.452V13.472ZM385.404 14.472V1.8H383.404V14.472H385.404ZM384.404 2.8H433.844V0.799995H384.404V2.8ZM445.509 65.928L444.957 66.7619L444.965 66.7673L445.509 65.928ZM435.909 53.736L435.404 52.8727L434.685 53.2934L434.969 54.0768L435.909 53.736ZM447.237 47.112L448.171 46.7542L447.749 45.6541L446.732 46.2487L447.237 47.112ZM470.853 55.368L470.239 54.5786L470.853 55.368ZM470.277 44.808L469.74 45.6517L469.749 45.6575L469.759 45.6632L470.277 44.808ZM458.949 40.488L458.664 41.4464L458.67 41.4484L458.677 41.4504L458.949 40.488ZM451.269 37.8L450.868 38.7162L450.878 38.7206L451.269 37.8ZM445.029 34.248L444.429 35.048L444.443 35.0584L444.457 35.0684L445.029 34.248ZM440.325 28.488L439.421 28.915L440.325 28.488ZM445.125 5.928L445.766 6.69528L445.767 6.69437L445.125 5.928ZM475.077 4.488L474.528 5.32404L474.536 5.32899L474.543 5.33379L475.077 4.488ZM484.773 15.528L485.273 16.3939L486.08 15.9281L485.672 15.0905L484.773 15.528ZM473.637 21.96L472.731 22.3829L473.192 23.3717L474.137 22.8259L473.637 21.96ZM454.245 15.24L454.866 16.0241L454.87 16.0209L454.245 15.24ZM454.533 25.224L453.919 26.0133L453.935 26.0259L453.952 26.0377L454.533 25.224ZM464.709 29.448L465.007 28.4935L465.003 28.4922L464.709 29.448ZM469.317 30.984L468.966 31.9203L469 31.9331L469.035 31.9434L469.317 30.984ZM473.637 32.616L473.243 33.5351L473.263 33.5435L473.282 33.551L473.637 32.616ZM477.861 34.632L477.306 35.4641L477.319 35.4722L477.331 35.48L477.861 34.632ZM481.317 37.224L481.965 36.4621L481.317 37.224ZM484.197 40.584L483.323 41.0696L483.333 41.0878L483.344 41.1054L484.197 40.584ZM485.925 44.808L484.959 45.068L484.965 45.0905L484.973 45.1128L485.925 44.808ZM479.877 64.872L479.251 64.0922L479.246 64.0966L479.877 64.872ZM462.309 69.344C455.802 69.344 450.401 67.906 446.053 65.0887L444.965 66.7673C449.705 69.838 455.504 71.344 462.309 71.344V69.344ZM446.061 65.0941C441.696 62.2045 438.632 58.3133 436.849 53.3952L434.969 54.0768C436.898 59.3987 440.234 63.6355 444.957 66.7619L446.061 65.0941ZM436.414 54.5992L447.742 47.9752L446.732 46.2487L435.404 52.8727L436.414 54.5992ZM446.303 47.4698C447.675 51.0509 449.736 53.8017 452.516 55.6488C455.291 57.4936 458.704 58.384 462.693 58.384V56.384C459.002 56.384 455.999 55.5624 453.622 53.9832C451.25 52.4063 449.423 50.0211 448.171 46.7542L446.303 47.4698ZM462.693 58.384C466.487 58.384 469.478 57.7044 471.467 56.1573L470.239 54.5786C468.772 55.7196 466.323 56.384 462.693 56.384V58.384ZM471.467 56.1573C473.419 54.639 474.445 52.6604 474.445 50.28H472.445C472.445 51.9956 471.743 53.409 470.239 54.5786L471.467 56.1573ZM474.445 50.28C474.445 47.5444 473.191 45.4046 470.795 43.9528L469.759 45.6632C471.587 46.7714 472.445 48.2796 472.445 50.28H474.445ZM470.814 43.9643C468.568 42.535 464.667 41.0634 459.221 39.5256L458.677 41.4504C464.111 42.9846 467.762 44.393 469.74 45.6517L470.814 43.9643ZM459.234 39.5296C456.25 38.6407 453.727 37.7567 451.66 36.8794L450.878 38.7206C453.035 39.6353 455.632 40.5433 458.664 41.4464L459.234 39.5296ZM451.67 36.8838C449.69 36.0177 447.667 34.8677 445.601 33.4276L444.457 35.0684C446.615 36.5723 448.752 37.7903 450.868 38.7162L451.67 36.8838ZM445.629 33.448C443.711 32.0092 442.247 30.217 441.229 28.061L439.421 28.915C440.579 31.367 442.251 33.4148 444.429 35.048L445.629 33.448ZM441.229 28.061C440.216 25.9151 439.693 23.3782 439.693 20.424H437.693C437.693 23.6138 438.258 26.4529 439.421 28.915L441.229 28.061ZM439.693 20.424C439.693 14.6107 441.727 10.0711 445.766 6.69528L444.484 5.16072C439.947 8.95291 437.693 14.0773 437.693 20.424H439.693ZM445.767 6.69437C449.926 3.2084 454.91 1.456 460.773 1.456V-0.544004C454.476 -0.544004 449.028 1.35159 444.483 5.16163L445.767 6.69437ZM460.773 1.456C466.04 1.456 470.613 2.75463 474.528 5.32404L475.626 3.65195C471.349 0.845364 466.386 -0.544004 460.773 -0.544004V1.456ZM474.543 5.33379C478.535 7.85132 481.645 11.3846 483.874 15.9655L485.672 15.0905C483.293 10.1994 479.939 6.37267 475.611 3.6422L474.543 5.33379ZM484.273 14.6621L473.137 21.0941L474.137 22.8259L485.273 16.3939L484.273 14.6621ZM474.543 21.5371C473.14 18.5301 471.289 16.2124 468.963 14.6499C466.631 13.0842 463.887 12.32 460.773 12.32V14.32C463.547 14.32 465.891 14.9958 467.847 16.3101C469.809 17.6276 471.446 19.6299 472.731 22.3829L474.543 21.5371ZM460.773 12.32C457.872 12.32 455.45 12.9953 453.62 14.4591L454.87 16.0209C456.24 14.9247 458.17 14.32 460.773 14.32V12.32ZM453.624 14.456C451.845 15.8644 450.941 17.755 450.941 20.04H452.941C452.941 18.357 453.573 17.0476 454.866 16.024L453.624 14.456ZM450.941 20.04C450.941 22.4735 451.958 24.488 453.919 26.0133L455.147 24.4346C453.652 23.272 452.941 21.8305 452.941 20.04H450.941ZM453.952 26.0377C455.889 27.4214 459.423 28.8677 464.415 30.4038L465.003 28.4922C460.011 26.9563 456.761 25.5866 455.114 24.4103L453.952 26.0377ZM464.411 30.4025C466.454 31.0411 467.969 31.5464 468.966 31.9203L469.668 30.0477C468.617 29.6536 467.06 29.1349 465.007 28.4935L464.411 30.4025ZM469.035 31.9434C470.067 32.247 471.466 32.7734 473.243 33.5351L474.031 31.6969C472.224 30.9226 470.743 30.361 469.599 30.0246L469.035 31.9434ZM473.282 33.551C475.111 34.2445 476.438 34.8851 477.306 35.4641L478.416 33.7999C477.364 33.0989 475.875 32.3955 473.992 31.681L473.282 33.551ZM477.331 35.48C478.301 36.0864 479.413 36.9183 480.669 37.9859L481.965 36.4621C480.661 35.3537 479.469 34.4576 478.391 33.784L477.331 35.48ZM480.669 37.9859C481.882 39.0166 482.755 40.047 483.323 41.0696L485.071 40.0984C484.359 38.817 483.312 37.6074 481.965 36.4621L480.669 37.9859ZM483.344 41.1054C483.986 42.1572 484.53 43.472 484.959 45.068L486.891 44.548C486.424 42.816 485.816 41.3147 485.05 40.0625L483.344 41.1054ZM484.973 45.1128C485.449 46.6013 485.693 48.2569 485.693 50.088H487.693C487.693 48.0791 487.425 46.2147 486.877 44.5032L484.973 45.1128ZM485.693 50.088C485.693 56.0156 483.541 60.6478 479.251 64.0922L480.503 65.6518C485.301 61.8002 487.693 56.5764 487.693 50.088H485.693ZM479.246 64.0966C474.985 67.5658 469.37 69.344 462.309 69.344V71.344C469.712 71.344 475.809 69.4742 480.508 65.6474L479.246 64.0966Z" fill="#20242D"/>
</svg>
