<svg width="437" height="88" viewBox="0 0 437 88" fill="none" xmlns="http://www.w3.org/2000/svg">
<path opacity="0.3" d="M17.36 70.16H16.36V71.16H17.36V70.16ZM52.76 70.16H53.76V69.16H52.76V70.16ZM52.76 86V87H53.76V86H52.76ZM0.800001 86H-0.199999V87H0.800001V86ZM0.800001 1.99999V0.999994H-0.199999V1.99999H0.800001ZM52.16 1.99999H53.16V0.999994H52.16V1.99999ZM52.16 17.84V18.84H53.16V17.84H52.16ZM17.36 17.84V16.84H16.36V17.84H17.36ZM17.36 35.72H16.36V36.72H17.36V35.72ZM49.16 35.72H50.16V34.72H49.16V35.72ZM49.16 51.32V52.32H50.16V51.32H49.16ZM17.36 51.32V50.32H16.36V51.32H17.36ZM17.36 71.16H52.76V69.16H17.36V71.16ZM51.76 70.16V86H53.76V70.16H51.76ZM52.76 85H0.800001V87H52.76V85ZM1.8 86V1.99999H-0.199999V86H1.8ZM0.800001 2.99999H52.16V0.999994H0.800001V2.99999ZM51.16 1.99999V17.84H53.16V1.99999H51.16ZM52.16 16.84H17.36V18.84H52.16V16.84ZM16.36 17.84V35.72H18.36V17.84H16.36ZM17.36 36.72H49.16V34.72H17.36V36.72ZM48.16 35.72V51.32H50.16V35.72H48.16ZM49.16 50.32H17.36V52.32H49.16V50.32ZM16.36 51.32V70.16H18.36V51.32H16.36ZM113.033 1.99999V0.999994H112.033V1.99999H113.033ZM129.593 1.99999H130.593V0.999994H129.593V1.99999ZM129.593 86V87H130.593V86H129.593ZM116.993 86L116.174 86.574L116.473 87H116.993V86ZM80.9928 34.64L81.8117 34.066L79.9928 31.4711V34.64H80.9928ZM80.9928 86V87H81.9928V86H80.9928ZM64.4328 86H63.4328V87H64.4328V86ZM64.4328 1.99999V0.999994H63.4328V1.99999H64.4328ZM77.0328 1.99999L77.8511 1.42512L77.5524 0.999994H77.0328V1.99999ZM113.033 53.24L112.215 53.8149L114.033 56.4028V53.24H113.033ZM113.033 2.99999H129.593V0.999994H113.033V2.99999ZM128.593 1.99999V86H130.593V1.99999H128.593ZM129.593 85H116.993V87H129.593V85ZM117.812 85.426L81.8117 34.066L80.1739 35.214L116.174 86.574L117.812 85.426ZM79.9928 34.64V86H81.9928V34.64H79.9928ZM80.9928 85H64.4328V87H80.9928V85ZM65.4328 86V1.99999H63.4328V86H65.4328ZM64.4328 2.99999H77.0328V0.999994H64.4328V2.99999ZM76.2146 2.57487L112.215 53.8149L113.851 52.6651L77.8511 1.42512L76.2146 2.57487ZM114.033 53.24V1.99999H112.033V53.24H114.033ZM161.735 70.16H160.735V71.16H161.735V70.16ZM197.135 70.16H198.135V69.16H197.135V70.16ZM197.135 86V87H198.135V86H197.135ZM145.175 86H144.175V87H145.175V86ZM145.175 1.99999V0.999994H144.175V1.99999H145.175ZM196.535 1.99999H197.535V0.999994H196.535V1.99999ZM196.535 17.84V18.84H197.535V17.84H196.535ZM161.735 17.84V16.84H160.735V17.84H161.735ZM161.735 35.72H160.735V36.72H161.735V35.72ZM193.535 35.72H194.535V34.72H193.535V35.72ZM193.535 51.32V52.32H194.535V51.32H193.535ZM161.735 51.32V50.32H160.735V51.32H161.735ZM161.735 71.16H197.135V69.16H161.735V71.16ZM196.135 70.16V86H198.135V70.16H196.135ZM197.135 85H145.175V87H197.135V85ZM146.175 86V1.99999H144.175V86H146.175ZM145.175 2.99999H196.535V0.999994H145.175V2.99999ZM195.535 1.99999V17.84H197.535V1.99999H195.535ZM196.535 16.84H161.735V18.84H196.535V16.84ZM160.735 17.84V35.72H162.735V17.84H160.735ZM161.735 36.72H193.535V34.72H161.735V36.72ZM192.535 35.72V51.32H194.535V35.72H192.535ZM193.535 50.32H161.735V52.32H193.535V50.32ZM160.735 51.32V70.16H162.735V51.32H160.735ZM254.888 86L254.023 86.5019L254.312 87H254.888V86ZM237.968 56.84L238.833 56.3381L238.544 55.84H237.968V56.84ZM225.368 56.84V55.84H224.368V56.84H225.368ZM225.368 86V87H226.368V86H225.368ZM208.808 86H207.808V87H208.808V86ZM208.808 1.99999V0.999994H207.808V1.99999H208.808ZM262.208 10.16L262.915 9.45289L262.208 10.16ZM265.928 44.36L266.758 44.9182L266.762 44.9113L265.928 44.36ZM254.168 54.32L253.751 53.4112L252.745 53.8726L253.305 54.8263L254.168 54.32ZM272.768 86V87H274.515L273.63 85.4937L272.768 86ZM225.368 17.48V16.48H224.368V17.48H225.368ZM225.368 42.32H224.368V43.32H225.368V42.32ZM250.448 38.72L251.179 39.4023L251.184 39.3963L251.19 39.3903L250.448 38.72ZM250.448 21.08L249.717 21.7623L250.448 21.08ZM255.753 85.4981L238.833 56.3381L237.103 57.3419L254.023 86.5019L255.753 85.4981ZM237.968 55.84H225.368V57.84H237.968V55.84ZM224.368 56.84V86H226.368V56.84H224.368ZM225.368 85H208.808V87H225.368V85ZM209.808 86V1.99999H207.808V86H209.808ZM208.808 2.99999H242.408V0.999994H208.808V2.99999ZM242.408 2.99999C249.905 2.99999 256.25 5.61646 261.501 10.8671L262.915 9.45289C257.286 3.82353 250.43 0.999994 242.408 0.999994V2.99999ZM261.501 10.8671C266.754 16.1199 269.368 22.4257 269.368 29.84H271.368C271.368 21.8943 268.542 15.0801 262.915 9.45289L261.501 10.8671ZM269.368 29.84C269.368 34.8373 267.949 39.4866 265.093 43.8087L266.762 44.9113C269.826 40.2734 271.368 35.2427 271.368 29.84H269.368ZM265.098 43.8018C262.242 48.0472 258.466 51.2469 253.751 53.4112L254.585 55.2288C259.63 52.9131 263.694 49.4728 266.758 44.9182L265.098 43.8018ZM253.305 54.8263L271.905 86.5063L273.63 85.4937L255.03 53.8137L253.305 54.8263ZM272.768 85H254.888V87H272.768V85ZM224.368 17.48V42.32H226.368V17.48H224.368ZM225.368 43.32H242.408V41.32H225.368V43.32ZM242.408 43.32C245.821 43.32 248.761 41.993 251.179 39.4023L249.717 38.0377C247.655 40.2469 245.235 41.32 242.408 41.32V43.32ZM251.19 39.3903C253.601 36.7206 254.808 33.5196 254.808 29.84H252.808C252.808 33.0404 251.774 35.7594 249.706 38.0497L251.19 39.3903ZM254.808 29.84C254.808 26.1601 253.601 22.9924 251.179 20.3977L249.717 21.7623C251.775 23.9676 252.808 26.6399 252.808 29.84H254.808ZM251.179 20.3977C248.761 17.8069 245.821 16.48 242.408 16.48V18.48C245.235 18.48 247.655 19.553 249.717 21.7623L251.179 20.3977ZM242.408 16.48H225.368V18.48H242.408V16.48ZM364.021 40.88H365.021V39.88H364.021V40.88ZM352.501 76.52L351.805 75.8018L352.501 76.52ZM290.461 75.08L289.754 75.7871L289.761 75.7937L290.461 75.08ZM290.341 13.04L289.634 12.3329L289.631 12.3362L290.341 13.04ZM343.261 5.72L342.776 6.59419L342.784 6.59872L343.261 5.72ZM358.381 19.88L358.881 20.7464L359.768 20.2352L359.236 19.3604L358.381 19.88ZM344.221 28.04L343.357 28.5426L343.857 29.4038L344.721 28.9064L344.221 28.04ZM335.101 19.64L334.626 20.5199L334.633 20.5238L335.101 19.64ZM301.861 24.32L301.149 23.6183L301.149 23.6184L301.861 24.32ZM301.981 63.8L301.274 64.5071L301.28 64.5125L301.285 64.5179L301.981 63.8ZM338.701 67.28L339.26 68.1096L339.263 68.1072L338.701 67.28ZM347.341 55.52L348.297 55.813L348.694 54.52H347.341V55.52ZM321.901 55.52H320.901V56.52H321.901V55.52ZM321.901 40.88V39.88H320.901V40.88H321.901ZM363.021 40.88V47.36H365.021V40.88H363.021ZM363.021 47.36C363.021 59.1256 359.266 68.574 351.805 75.8018L353.197 77.2382C361.096 69.586 365.021 59.5944 365.021 47.36H363.021ZM351.805 75.8018C344.338 83.0359 334.68 86.68 322.741 86.68V88.68C335.122 88.68 345.305 84.8841 353.197 77.2382L351.805 75.8018ZM322.741 86.68C310.02 86.68 299.519 82.5671 291.162 74.3663L289.761 75.7937C298.524 84.3929 309.543 88.68 322.741 88.68V86.68ZM291.168 74.3729C282.879 66.0834 278.741 56.0189 278.741 44.12H276.741C276.741 56.5411 281.084 67.1166 289.754 75.7871L291.168 74.3729ZM278.741 44.12C278.741 32.1361 282.842 22.0312 291.052 13.7437L289.631 12.3362C281.04 21.0088 276.741 31.6239 276.741 44.12H278.741ZM291.048 13.7471C299.332 5.46297 309.554 1.31999 321.781 1.31999V-0.680006C309.048 -0.680006 298.31 3.65702 289.634 12.3329L291.048 13.7471ZM321.781 1.31999C329.461 1.31999 336.453 3.08147 342.776 6.59415L343.747 4.84584C337.11 1.15852 329.781 -0.680006 321.781 -0.680006V1.31999ZM342.784 6.59872C349.119 10.04 354.025 14.6403 357.527 20.3996L359.236 19.3604C355.538 13.2797 350.363 8.43996 343.739 4.84127L342.784 6.59872ZM357.882 19.0136L343.722 27.1736L344.721 28.9064L358.881 20.7464L357.882 19.0136ZM345.086 27.5374C342.978 23.9113 339.787 20.9894 335.569 18.7562L334.633 20.5238C338.575 22.6106 341.465 25.2887 343.357 28.5426L345.086 27.5374ZM335.576 18.7601C331.417 16.5142 326.772 15.4 321.661 15.4V17.4C326.471 17.4 330.785 18.4458 334.626 20.5199L335.576 18.7601ZM321.661 15.4C313.417 15.4 306.553 18.1313 301.149 23.6183L302.574 25.0217C307.57 19.9487 313.906 17.4 321.661 17.4V15.4ZM301.149 23.6184C295.826 29.0243 293.181 35.8852 293.181 44.12H295.181C295.181 36.3548 297.657 30.0157 302.574 25.0216L301.149 23.6184ZM293.181 44.12C293.181 52.2827 295.871 59.1042 301.274 64.5071L302.688 63.0929C297.691 58.0958 295.181 51.7973 295.181 44.12H293.181ZM301.285 64.5179C306.784 69.8501 314.01 72.48 322.861 72.48V70.48C314.432 70.48 307.739 67.9899 302.677 63.0821L301.285 64.5179ZM322.861 72.48C329.405 72.48 334.894 71.0477 339.26 68.1096L338.143 66.4504C334.188 69.1123 329.117 70.48 322.861 70.48V72.48ZM339.263 68.1072C343.694 65.0976 346.712 60.9879 348.297 55.813L346.385 55.227C344.931 59.9721 342.188 63.7024 338.139 66.4528L339.263 68.1072ZM347.341 54.52H321.901V56.52H347.341V54.52ZM322.901 55.52V40.88H320.901V55.52H322.901ZM321.901 41.88H364.021V39.88H321.901V41.88ZM436.186 1.99999L437.058 2.48997L437.895 0.999994H436.186V1.99999ZM407.386 53.24L406.515 52.75L406.386 52.9782V53.24H407.386ZM407.386 86V87H408.386V86H407.386ZM390.946 86H389.946V87H390.946V86ZM390.946 53.24H391.946V52.9792L391.819 52.7516L390.946 53.24ZM362.266 1.99999V0.999994H360.561L361.394 2.48841L362.266 1.99999ZM380.986 1.99999L381.873 1.53826L381.593 0.999994H380.986V1.99999ZM399.226 37.04L398.339 37.5017L399.226 39.2057L400.113 37.5017L399.226 37.04ZM417.466 1.99999V0.999994H416.859L416.579 1.53826L417.466 1.99999ZM435.315 1.51002L406.515 52.75L408.258 53.73L437.058 2.48997L435.315 1.51002ZM406.386 53.24V86H408.386V53.24H406.386ZM407.386 85H390.946V87H407.386V85ZM391.946 86V53.24H389.946V86H391.946ZM391.819 52.7516L363.139 1.51158L361.394 2.48841L390.074 53.7284L391.819 52.7516ZM362.266 2.99999H380.986V0.999994H362.266V2.99999ZM380.099 2.46173L398.339 37.5017L400.113 36.5783L381.873 1.53826L380.099 2.46173ZM400.113 37.5017L418.353 2.46173L416.579 1.53826L398.339 36.5783L400.113 37.5017ZM417.466 2.99999H436.186V0.999994H417.466V2.99999Z" fill="white"/>
</svg>
