<svg width="12" height="12" viewBox="0 0 12 12" fill="none" xmlns="http://www.w3.org/2000/svg">
<path d="M11.25 8.57833V10.641C11.2501 10.7887 11.1941 10.9309 11.0934 11.0389C10.9927 11.147 10.8548 11.2128 10.7075 11.2232C10.4526 11.2407 10.2443 11.25 10.0833 11.25C4.92842 11.25 0.75 7.07158 0.75 1.91667C0.75 1.75567 0.75875 1.54742 0.776833 1.2925C0.787171 1.14518 0.853006 1.00726 0.961052 0.906572C1.0691 0.805887 1.21131 0.749933 1.359 0.75H3.42167C3.49402 0.749927 3.56382 0.776751 3.61751 0.825262C3.67119 0.873773 3.70493 0.940507 3.71217 1.0125C3.72558 1.14667 3.73783 1.25342 3.7495 1.3345C3.86543 2.14354 4.103 2.9304 4.45417 3.66842C4.50958 3.78508 4.47342 3.9245 4.36842 3.99917L3.10958 4.89867C3.87926 6.6921 5.30849 8.12132 7.10192 8.891L8.00025 7.6345C8.03697 7.58317 8.09054 7.54635 8.15162 7.53046C8.21271 7.51458 8.27743 7.52064 8.3345 7.54758C9.07243 7.89809 9.85909 8.13507 10.6678 8.2505C10.7489 8.26217 10.8557 8.275 10.9887 8.28783C11.0606 8.2952 11.1271 8.329 11.1755 8.38267C11.2239 8.43634 11.2507 8.50607 11.2506 8.57833H11.25Z" fill="#FF7129"/>
</svg>
