<svg width="567" height="71" viewBox="0 0 567 71" fill="none" xmlns="http://www.w3.org/2000/svg">
<path opacity="0.3" d="M30.368 14.472V15.472H31.368V14.472H30.368ZM3.488 14.472V13.472H2.488V14.472H3.488ZM3.488 30.408H2.488V31.408H3.488V30.408ZM29.6 30.408H30.6V29.408H29.6V30.408ZM29.6 43.08V44.08H30.6V43.08H29.6ZM3.488 43.08V42.08H2.488V43.08H3.488ZM3.488 69V70H4.488V69H3.488ZM-9.76 69H-10.76V70H-9.76V69ZM-9.76 1.8V0.799995H-10.76V1.8H-9.76ZM30.368 1.8H31.368V0.799995H30.368V1.8ZM30.368 13.472H3.488V15.472H30.368V13.472ZM2.488 14.472V30.408H4.488V14.472H2.488ZM3.488 31.408H29.6V29.408H3.488V31.408ZM28.6 30.408V43.08H30.6V30.408H28.6ZM29.6 42.08H3.488V44.08H29.6V42.08ZM2.488 43.08V69H4.488V43.08H2.488ZM3.488 68H-9.76V70H3.488V68ZM-8.76 69V1.8H-10.76V69H-8.76ZM-9.76 2.8H30.368V0.799995H-9.76V2.8ZM29.368 1.8V14.472H31.368V1.8H29.368ZM96.5653 60.264L97.269 60.9745L97.2724 60.9711L96.5653 60.264ZM47.0293 60.264L46.3188 60.9678L46.3255 60.9744L47.0293 60.264ZM47.0293 10.632L46.3221 9.92489L47.0293 10.632ZM96.5653 10.632L95.8581 11.3391L95.8615 11.3424L96.5653 10.632ZM56.3412 51.24L55.6341 51.9471L55.6396 51.9526L56.3412 51.24ZM87.2533 51.24L87.9549 51.9526L87.9604 51.9471L87.2533 51.24ZM87.2533 19.56L87.9604 18.8529L87.2533 19.56ZM56.3412 19.56L55.6341 18.8529L56.3412 19.56ZM95.8615 59.5536C89.2687 66.0842 81.2672 69.344 71.7973 69.344V71.344C81.7833 71.344 90.2938 67.8838 97.269 60.9744L95.8615 59.5536ZM71.7973 69.344C62.3273 69.344 54.3258 66.0842 47.733 59.5536L46.3255 60.9744C53.3007 67.8838 61.8112 71.344 71.7973 71.344V69.344ZM47.7397 59.5602C41.2104 52.9688 37.9492 44.9359 37.9492 35.4H35.9492C35.9492 45.4481 39.4081 53.9912 46.3188 60.9678L47.7397 59.5602ZM37.9492 35.4C37.9492 25.8642 41.2102 17.8653 47.7364 11.3391L46.3221 9.92489C39.4083 16.8387 35.9492 25.3518 35.9492 35.4H37.9492ZM47.7364 11.3391C54.3299 4.74556 62.3303 1.456 71.7973 1.456V-0.544004C61.8082 -0.544004 53.2966 2.95043 46.3221 9.92489L47.7364 11.3391ZM71.7973 1.456C81.2642 1.456 89.2646 4.74556 95.8581 11.3391L97.2724 9.92489C90.2979 2.95043 81.7863 -0.544004 71.7973 -0.544004V1.456ZM95.8615 11.3424C102.451 17.8694 105.741 25.8672 105.741 35.4H107.741C107.741 25.3488 104.248 16.8346 97.269 9.92155L95.8615 11.3424ZM105.741 35.4C105.741 44.9329 102.45 52.9647 95.8581 59.5569L97.2724 60.9711C104.248 53.9953 107.741 45.4511 107.741 35.4H105.741ZM55.6396 51.9526C59.9973 56.2432 65.406 58.384 71.7973 58.384V56.384C65.9005 56.384 61.0052 54.4288 57.0429 50.5274L55.6396 51.9526ZM71.7973 58.384C78.1885 58.384 83.5972 56.2432 87.9549 51.9526L86.5517 50.5274C82.5893 54.4288 77.694 56.384 71.7973 56.384V58.384ZM87.9604 51.9471C92.3253 47.5822 94.4933 42.0395 94.4933 35.4H92.4933C92.4933 41.5605 90.5012 46.5778 86.5462 50.5329L87.9604 51.9471ZM94.4933 35.4C94.4933 28.7605 92.3253 23.2178 87.9604 18.8529L86.5462 20.2671C90.5012 24.2222 92.4933 29.2395 92.4933 35.4H94.4933ZM87.9604 18.8529C83.6038 14.4963 78.1934 12.32 71.7973 12.32V14.32C77.6891 14.32 82.5827 16.3037 86.5462 20.2671L87.9604 18.8529ZM71.7973 12.32C65.4011 12.32 59.9908 14.4963 55.6341 18.8529L57.0484 20.2671C61.0117 16.3037 65.9054 14.32 71.7973 14.32V12.32ZM55.6341 18.8529C51.2692 23.2178 49.1012 28.7605 49.1012 35.4H51.1012C51.1012 29.2395 53.0933 24.2222 57.0484 20.2671L55.6341 18.8529ZM49.1012 35.4C49.1012 42.0395 51.2692 47.5822 55.6341 51.9471L57.0484 50.5329C53.0933 46.5778 51.1012 41.5605 51.1012 35.4H49.1012ZM156.657 1.8H157.657V0.799995H156.657V1.8ZM156.657 14.472V15.472H157.657V14.472H156.657ZM138.513 14.472V13.472H137.513V14.472H138.513ZM138.513 69V70H139.513V69H138.513ZM125.265 69H124.265V70H125.265V69ZM125.265 14.472H126.265V13.472H125.265V14.472ZM107.217 14.472H106.217V15.472H107.217V14.472ZM107.217 1.8V0.799995H106.217V1.8H107.217ZM155.657 1.8V14.472H157.657V1.8H155.657ZM156.657 13.472H138.513V15.472H156.657V13.472ZM137.513 14.472V69H139.513V14.472H137.513ZM138.513 68H125.265V70H138.513V68ZM126.265 69V14.472H124.265V69H126.265ZM125.265 13.472H107.217V15.472H125.265V13.472ZM108.217 14.472V1.8H106.217V14.472H108.217ZM107.217 2.8H156.657V0.799995H107.217V2.8ZM216.753 60.264L217.457 60.9745L217.46 60.9711L216.753 60.264ZM167.217 60.264L166.506 60.9678L166.513 60.9744L167.217 60.264ZM167.217 10.632L166.51 9.92489L167.217 10.632ZM216.753 10.632L216.046 11.3391L216.049 11.3424L216.753 10.632ZM176.529 51.24L175.822 51.9471L175.827 51.9526L176.529 51.24ZM207.441 51.24L208.142 51.9526L208.148 51.9471L207.441 51.24ZM207.441 19.56L208.148 18.8529L207.441 19.56ZM176.529 19.56L175.822 18.8529L176.529 19.56ZM216.049 59.5536C209.456 66.0842 201.455 69.344 191.985 69.344V71.344C201.971 71.344 210.481 67.8838 217.456 60.9744L216.049 59.5536ZM191.985 69.344C182.515 69.344 174.513 66.0842 167.921 59.5536L166.513 60.9744C173.488 67.8838 181.999 71.344 191.985 71.344V69.344ZM167.927 59.5602C161.398 52.9688 158.137 44.9359 158.137 35.4H156.137C156.137 45.4481 159.596 53.9912 166.506 60.9678L167.927 59.5602ZM158.137 35.4C158.137 25.8642 161.398 17.8653 167.924 11.3391L166.51 9.92489C159.596 16.8387 156.137 25.3518 156.137 35.4H158.137ZM167.924 11.3391C174.517 4.74556 182.518 1.456 191.985 1.456V-0.544004C181.996 -0.544004 173.484 2.95043 166.51 9.92489L167.924 11.3391ZM191.985 1.456C201.452 1.456 209.452 4.74556 216.046 11.3391L217.46 9.92489C210.485 2.95043 201.974 -0.544004 191.985 -0.544004V1.456ZM216.049 11.3424C222.638 17.8694 225.929 25.8672 225.929 35.4H227.929C227.929 25.3488 224.435 16.8346 217.456 9.92155L216.049 11.3424ZM225.929 35.4C225.929 44.9329 222.638 52.9647 216.046 59.5569L217.46 60.9711C224.436 53.9953 227.929 45.4511 227.929 35.4H225.929ZM175.827 51.9526C180.185 56.2432 185.593 58.384 191.985 58.384V56.384C186.088 56.384 181.193 54.4288 177.23 50.5274L175.827 51.9526ZM191.985 58.384C198.376 58.384 203.785 56.2432 208.142 51.9526L206.739 50.5274C202.777 54.4288 197.881 56.384 191.985 56.384V58.384ZM208.148 51.9471C212.513 47.5822 214.681 42.0395 214.681 35.4H212.681C212.681 41.5605 210.689 46.5778 206.734 50.5329L208.148 51.9471ZM214.681 35.4C214.681 28.7605 212.513 23.2178 208.148 18.8529L206.734 20.2671C210.689 24.2222 212.681 29.2395 212.681 35.4H214.681ZM208.148 18.8529C203.791 14.4963 198.381 12.32 191.985 12.32V14.32C197.877 14.32 202.77 16.3037 206.734 20.2671L208.148 18.8529ZM191.985 12.32C185.589 12.32 180.178 14.4963 175.822 18.8529L177.236 20.2671C181.199 16.3037 186.093 14.32 191.985 14.32V12.32ZM175.822 18.8529C171.457 23.2178 169.289 28.7605 169.289 35.4H171.289C171.289 29.2395 173.281 24.2222 177.236 20.2671L175.822 18.8529ZM169.289 35.4C169.289 42.0395 171.457 47.5822 175.822 51.9471L177.236 50.5329C173.281 46.5778 171.289 41.5605 171.289 35.4H169.289ZM275.12 1.8V0.799995H274.12V1.8H275.12ZM288.368 1.8H289.368V0.799995H288.368V1.8ZM288.368 69V70H289.368V69H288.368ZM278.288 69L277.469 69.574L277.768 70H278.288V69ZM249.488 27.912L250.307 27.338L248.488 24.7431V27.912H249.488ZM249.488 69V70H250.488V69H249.488ZM236.24 69H235.24V70H236.24V69ZM236.24 1.8V0.799995H235.24V1.8H236.24ZM246.32 1.8L247.138 1.22512L246.84 0.799995H246.32V1.8ZM275.12 42.792L274.302 43.3669L276.12 45.9548V42.792H275.12ZM275.12 2.8H288.368V0.799995H275.12V2.8ZM287.368 1.8V69H289.368V1.8H287.368ZM288.368 68H278.288V70H288.368V68ZM279.107 68.426L250.307 27.338L248.669 28.486L277.469 69.574L279.107 68.426ZM248.488 27.912V69H250.488V27.912H248.488ZM249.488 68H236.24V70H249.488V68ZM237.24 69V1.8H235.24V69H237.24ZM236.24 2.8H246.32V0.799995H236.24V2.8ZM245.502 2.37487L274.302 43.3669L275.938 42.2171L247.138 1.22512L245.502 2.37487ZM276.12 42.792V1.8H274.12V42.792H276.12ZM300.834 45.96H299.834V46.96H300.834V45.96ZM300.834 34.056V33.056H299.834V34.056H300.834ZM336.834 34.056H337.834V33.056H336.834V34.056ZM336.834 45.96V46.96H337.834V45.96H336.834ZM301.834 45.96V34.056H299.834V45.96H301.834ZM300.834 35.056H336.834V33.056H300.834V35.056ZM335.834 34.056V45.96H337.834V34.056H335.834ZM336.834 44.96H300.834V46.96H336.834V44.96ZM388.875 1.8H389.875V0.799995H388.875V1.8ZM388.875 14.472V15.472H389.875V14.472H388.875ZM370.732 14.472V13.472H369.732V14.472H370.732ZM370.732 69V70H371.732V69H370.732ZM357.483 69H356.483V70H357.483V69ZM357.483 14.472H358.483V13.472H357.483V14.472ZM339.435 14.472H338.435V15.472H339.435V14.472ZM339.435 1.8V0.799995H338.435V1.8H339.435ZM387.875 1.8V14.472H389.875V1.8H387.875ZM388.875 13.472H370.732V15.472H388.875V13.472ZM369.732 14.472V69H371.732V14.472H369.732ZM370.732 68H357.483V70H370.732V68ZM358.483 69V14.472H356.483V69H358.483ZM357.483 13.472H339.435V15.472H357.483V13.472ZM340.435 14.472V1.8H338.435V14.472H340.435ZM339.435 2.8H388.875V0.799995H339.435V2.8ZM409.519 56.328H408.519V57.328H409.519V56.328ZM437.839 56.328H438.839V55.328H437.839V56.328ZM437.839 69V70H438.839V69H437.839ZM396.271 69H395.271V70H396.271V69ZM396.271 1.8V0.799995H395.271V1.8H396.271ZM437.359 1.8H438.359V0.799995H437.359V1.8ZM437.359 14.472V15.472H438.359V14.472H437.359ZM409.519 14.472V13.472H408.519V14.472H409.519ZM409.519 28.776H408.519V29.776H409.519V28.776ZM434.959 28.776H435.959V27.776H434.959V28.776ZM434.959 41.256V42.256H435.959V41.256H434.959ZM409.519 41.256V40.256H408.519V41.256H409.519ZM409.519 57.328H437.839V55.328H409.519V57.328ZM436.839 56.328V69H438.839V56.328H436.839ZM437.839 68H396.271V70H437.839V68ZM397.271 69V1.8H395.271V69H397.271ZM396.271 2.8H437.359V0.799995H396.271V2.8ZM436.359 1.8V14.472H438.359V1.8H436.359ZM437.359 13.472H409.519V15.472H437.359V13.472ZM408.519 14.472V28.776H410.519V14.472H408.519ZM409.519 29.776H434.959V27.776H409.519V29.776ZM433.959 28.776V41.256H435.959V28.776H433.959ZM434.959 40.256H409.519V42.256H434.959V40.256ZM408.519 41.256V56.328H410.519V41.256H408.519ZM453.525 60.264L454.239 59.5637L453.525 60.264ZM453.525 10.536L454.235 11.2397L454.239 11.2363L453.525 10.536ZM495.381 4.776L494.891 5.64757L494.897 5.65119L494.903 5.65472L495.381 4.776ZM507.477 16.296L507.978 17.1611L508.851 16.6549L508.337 15.7865L507.477 16.296ZM496.053 22.92L495.178 23.4041L495.672 24.2969L496.554 23.7851L496.053 22.92ZM488.949 15.912L488.458 16.7836L488.465 16.7875L488.472 16.7913L488.949 15.912ZM462.741 19.464L462.028 18.7625L462.023 18.7682L462.741 19.464ZM462.741 51.24L462.022 51.9358L462.028 51.9415L462.741 51.24ZM488.949 54.888L489.425 55.7673L489.431 55.7638L488.949 54.888ZM496.053 47.88L496.554 47.0149L495.665 46.4992L495.174 47.4025L496.053 47.88ZM507.477 54.504L508.337 55.0135L508.851 54.1451L507.978 53.6389L507.477 54.504ZM495.477 66.12L495.959 66.9963L495.967 66.9916L495.477 66.12ZM478.581 69.344C468.715 69.344 460.628 66.0768 454.239 59.5637L452.811 60.9643C459.606 67.8912 468.222 71.344 478.581 71.344V69.344ZM454.239 59.5637C447.839 53.0402 444.637 45.0078 444.637 35.4H442.637C442.637 45.5042 446.026 54.0478 452.811 60.9643L454.239 59.5637ZM444.637 35.4C444.637 25.7263 447.84 17.6965 454.235 11.2397L452.814 9.83232C446.025 16.6875 442.637 25.2337 442.637 35.4H444.637ZM454.239 11.2363C460.628 4.72321 468.715 1.456 478.581 1.456V-0.544004C468.222 -0.544004 459.606 2.90878 452.811 9.83572L454.239 11.2363ZM478.581 1.456C484.495 1.456 489.926 2.85479 494.891 5.64757L495.871 3.90442C490.596 0.937206 484.826 -0.544004 478.581 -0.544004V1.456ZM494.903 5.65472C499.936 8.38844 503.832 12.1039 506.616 16.8055L508.337 15.7865C505.361 10.7601 501.194 6.79556 495.858 3.89727L494.903 5.65472ZM506.975 15.4309L495.551 22.0549L496.554 23.7851L507.978 17.1611L506.975 15.4309ZM496.928 22.4359C495.17 19.2579 492.662 16.7861 489.425 15.0327L488.472 16.7913C491.379 18.3659 493.608 20.566 495.178 23.4041L496.928 22.4359ZM489.439 15.0404C486.204 13.2208 482.577 12.32 478.581 12.32V14.32C482.265 14.32 485.549 15.1472 488.458 16.7836L489.439 15.0404ZM478.581 12.32C471.824 12.32 466.274 14.449 462.028 18.7625L463.453 20.1655C467.271 16.287 472.281 14.32 478.581 14.32V12.32ZM462.023 18.7682C457.847 23.078 455.789 28.6529 455.789 35.4H457.789C457.789 29.0911 459.698 24.042 463.459 20.1598L462.023 18.7682ZM455.789 35.4C455.789 42.0862 457.849 47.6279 462.023 51.9358L463.459 50.5442C459.696 46.6601 457.789 41.6418 457.789 35.4H455.789ZM462.028 51.9415C466.274 56.255 471.824 58.384 478.581 58.384V56.384C472.281 56.384 467.271 54.417 463.453 50.5385L462.028 51.9415ZM478.581 58.384C482.57 58.384 486.193 57.5182 489.425 55.7673L488.472 54.0087C485.561 55.5858 482.271 56.384 478.581 56.384V58.384ZM489.431 55.7638C492.723 53.9502 495.234 51.481 496.931 48.3575L495.174 47.4025C493.672 50.167 491.447 52.3698 488.466 54.0122L489.431 55.7638ZM495.551 48.7451L506.975 55.3691L507.978 53.6389L496.554 47.0149L495.551 48.7451ZM506.616 53.9945C503.829 58.7013 499.96 62.451 494.986 65.2484L495.967 66.9916C501.234 64.029 505.364 60.0347 508.337 55.0135L506.616 53.9945ZM494.995 65.2438C490.03 67.9744 484.565 69.344 478.581 69.344V71.344C484.884 71.344 490.683 69.8976 495.959 66.9962L494.995 65.2438ZM553.823 1.8V0.799995H552.823V1.8H553.823ZM566.975 1.8H567.975V0.799995H566.975V1.8ZM566.975 69V70H567.975V69H566.975ZM553.823 69H552.823V70H553.823V69ZM553.823 41.16H554.823V40.16H553.823V41.16ZM528.863 41.16V40.16H527.863V41.16H528.863ZM528.863 69V70H529.863V69H528.863ZM515.615 69H514.615V70H515.615V69ZM515.615 1.8V0.799995H514.615V1.8H515.615ZM528.863 1.8H529.863V0.799995H528.863V1.8ZM528.863 28.488H527.863V29.488H528.863V28.488ZM553.823 28.488V29.488H554.823V28.488H553.823ZM553.823 2.8H566.975V0.799995H553.823V2.8ZM565.975 1.8V69H567.975V1.8H565.975ZM566.975 68H553.823V70H566.975V68ZM554.823 69V41.16H552.823V69H554.823ZM553.823 40.16H528.863V42.16H553.823V40.16ZM527.863 41.16V69H529.863V41.16H527.863ZM528.863 68H515.615V70H528.863V68ZM516.615 69V1.8H514.615V69H516.615ZM515.615 2.8H528.863V0.799995H515.615V2.8ZM527.863 1.8V28.488H529.863V1.8H527.863ZM528.863 29.488H553.823V27.488H528.863V29.488ZM554.823 28.488V1.8H552.823V28.488H554.823Z" fill="white"/>
</svg>
