<svg width="395" height="71" viewBox="0 0 395 71" fill="none" xmlns="http://www.w3.org/2000/svg">
<g opacity="0.1">
<path d="M69.192 32.904V38.088C69.192 47.688 66.12 55.464 59.976 61.416C53.832 67.368 45.896 70.344 36.168 70.344C25.8 70.344 17.192 66.984 10.344 60.264C3.56 53.48 0.168 45.224 0.168 35.496C0.168 25.704 3.528 17.416 10.248 10.632C17.032 3.848 25.416 0.455996 35.4 0.455996C41.672 0.455996 47.4 1.896 52.584 4.776C57.768 7.592 61.8 11.368 64.68 16.104L53.352 22.632C51.752 19.88 49.32 17.64 46.056 15.912C42.856 14.184 39.272 13.32 35.304 13.32C28.904 13.32 23.624 15.432 19.464 19.656C15.368 23.816 13.32 29.096 13.32 35.496C13.32 41.832 15.4 47.08 19.56 51.24C23.784 55.336 29.352 57.384 36.264 57.384C41.384 57.384 45.608 56.264 48.936 54.024C52.328 51.72 54.632 48.584 55.848 44.616H35.496V32.904H69.192ZM119.378 69L115.346 56.904H88.5615L84.5295 69H70.2255L93.7455 1.8H110.162L133.778 69H119.378ZM92.7855 44.52H111.218L102.002 17.064L92.7855 44.52ZM153.551 56.328H179.183V69H140.303V1.8H153.551V56.328ZM199.957 56.328H225.589V69H186.709V1.8H199.957V56.328ZM246.363 56.328H274.683V69H233.115V1.8H274.203V14.472H246.363V28.776H271.803V41.256H246.363V56.328ZM320.885 69L307.349 45.672H297.269V69H284.021V1.8H310.901C317.109 1.8 322.389 3.976 326.741 8.328C331.093 12.68 333.269 17.928 333.269 24.072C333.269 28.232 332.085 32.104 329.717 35.688C327.349 39.208 324.213 41.864 320.309 43.656L335.189 69H320.885ZM297.269 14.184V34.056H310.901C313.397 34.056 315.541 33.096 317.333 31.176C319.125 29.192 320.021 26.824 320.021 24.072C320.021 21.32 319.125 18.984 317.333 17.064C315.541 15.144 313.397 14.184 310.901 14.184H297.269ZM394.299 1.8L371.259 42.792V69H358.107V42.792L335.163 1.8H350.139L364.731 29.832L379.323 1.8H394.299Z" fill="white"/>
<path d="M69.192 32.904H70.192V31.904H69.192V32.904ZM59.976 61.416L59.2802 60.6978L59.976 61.416ZM10.344 60.264L9.63686 60.9711L9.6436 60.9777L10.344 60.264ZM10.248 10.632L9.54089 9.92488L9.53755 9.92825L10.248 10.632ZM52.584 4.776L52.0983 5.65019L52.1067 5.65472L52.584 4.776ZM64.68 16.104L65.1793 16.9704L66.0664 16.4592L65.5344 15.5844L64.68 16.104ZM53.352 22.632L52.4875 23.1346L52.9882 23.9958L53.8513 23.4984L53.352 22.632ZM46.056 15.912L45.5808 16.7919L45.5881 16.7958L46.056 15.912ZM19.464 19.656L18.7515 18.9543L18.7514 18.9544L19.464 19.656ZM19.56 51.24L18.8529 51.9471L18.8583 51.9525L18.8639 51.9579L19.56 51.24ZM48.936 54.024L49.4944 54.8536L49.4979 54.8512L48.936 54.024ZM55.848 44.616L56.8041 44.909L57.2004 43.616H55.848V44.616ZM35.496 44.616H34.496V45.616H35.496V44.616ZM35.496 32.904V31.904H34.496V32.904H35.496ZM68.192 32.904V38.088H70.192V32.904H68.192ZM68.192 38.088C68.192 47.4536 65.2051 54.958 59.2802 60.6978L60.6718 62.1342C67.0349 55.97 70.192 47.9224 70.192 38.088H68.192ZM59.2802 60.6978C53.3487 66.4439 45.6749 69.344 36.168 69.344V71.344C46.1171 71.344 54.3153 68.2921 60.6718 62.1342L59.2802 60.6978ZM36.168 69.344C26.0387 69.344 17.6895 66.0711 11.0444 59.5503L9.6436 60.9777C16.6945 67.8969 25.5613 71.344 36.168 71.344V69.344ZM11.0511 59.5569C4.45756 52.9633 1.168 44.9629 1.168 35.496H-0.832C-0.832 45.4851 2.66244 53.9967 9.63689 60.9711L11.0511 59.5569ZM1.168 35.496C1.168 25.9601 4.42915 17.9272 10.9585 11.3357L9.53755 9.92825C2.62685 16.9048 -0.832 25.4479 -0.832 35.496H1.168ZM10.9551 11.3391C17.5432 4.75097 25.6692 1.456 35.4 1.456V-0.544004C25.1628 -0.544004 16.5208 2.94502 9.54089 9.92489L10.9551 11.3391ZM35.4 1.456C41.5122 1.456 47.0715 2.85747 52.0984 5.65015L53.0696 3.90184C47.7285 0.934521 41.8318 -0.544004 35.4 -0.544004V1.456ZM52.1067 5.65472C57.1458 8.39204 61.0433 12.0483 63.8256 16.6236L65.5344 15.5844C62.5567 10.6877 58.3902 6.79196 53.0613 3.89727L52.1067 5.65472ZM64.1807 15.2376L52.8527 21.7656L53.8513 23.4984L65.1793 16.9704L64.1807 15.2376ZM54.2165 22.1294C52.5083 19.1913 49.9262 16.8294 46.5239 15.0282L45.5881 16.7958C48.7138 18.4506 50.9957 20.5687 52.4875 23.1346L54.2165 22.1294ZM46.5312 15.0321C43.1721 13.2182 39.4224 12.32 35.304 12.32V14.32C39.1216 14.32 42.5399 15.1498 45.5809 16.7919L46.5312 15.0321ZM35.304 12.32C28.6597 12.32 23.1154 14.5233 18.7515 18.9543L20.1765 20.3577C24.1326 16.3407 29.1483 14.32 35.304 14.32V12.32ZM18.7514 18.9544C14.4527 23.3203 12.32 28.8612 12.32 35.496H14.32C14.32 29.3308 16.2833 24.3117 20.1766 20.3576L18.7514 18.9544ZM12.32 35.496C12.32 42.0747 14.49 47.5842 18.8529 51.9471L20.2671 50.5329C16.31 46.5758 14.32 41.5893 14.32 35.496H12.32ZM18.8639 51.9579C23.3067 56.2661 29.1408 58.384 36.264 58.384V56.384C29.5632 56.384 24.2613 54.4059 20.2561 50.5221L18.8639 51.9579ZM36.264 58.384C41.5282 58.384 45.9611 57.2317 49.4944 54.8536L48.3776 53.1944C45.2549 55.2963 41.2398 56.384 36.264 56.384V58.384ZM49.4979 54.8512C53.0808 52.4176 55.5223 49.0919 56.8041 44.909L54.8919 44.323C53.7417 48.0761 51.5752 51.0224 48.3741 53.1968L49.4979 54.8512ZM55.848 43.616H35.496V45.616H55.848V43.616ZM36.496 44.616V32.904H34.496V44.616H36.496ZM35.496 33.904H69.192V31.904H35.496V33.904ZM119.378 69L118.429 69.3162L118.657 70H119.378V69ZM115.346 56.904L116.294 56.5878L116.066 55.904H115.346V56.904ZM88.5615 56.904V55.904H87.8407L87.6128 56.5878L88.5615 56.904ZM84.5295 69V70H85.2503L85.4782 69.3162L84.5295 69ZM70.2255 69L69.2816 68.6696L68.816 70H70.2255V69ZM93.7455 1.8V0.799995H93.036L92.8016 1.46964L93.7455 1.8ZM110.161 1.8L111.105 1.46844L110.87 0.799995H110.161V1.8ZM133.777 69V70H135.189L134.721 68.6684L133.777 69ZM92.7855 44.52L91.8375 44.2018L91.395 45.52H92.7855V44.52ZM111.217 44.52V45.52H112.608L112.166 44.2018L111.217 44.52ZM102.002 17.064L102.95 16.7458L102.002 13.9215L101.053 16.7458L102.002 17.064ZM120.326 68.6838L116.294 56.5878L114.397 57.2202L118.429 69.3162L120.326 68.6838ZM115.346 55.904H88.5615V57.904H115.346V55.904ZM87.6128 56.5878L83.5808 68.6838L85.4782 69.3162L89.5102 57.2202L87.6128 56.5878ZM84.5295 68H70.2255V70H84.5295V68ZM71.1694 69.3304L94.6894 2.13035L92.8016 1.46964L69.2816 68.6696L71.1694 69.3304ZM93.7455 2.8H110.161V0.799995H93.7455V2.8ZM109.218 2.13155L132.834 69.3316L134.721 68.6684L111.105 1.46844L109.218 2.13155ZM133.777 68H119.378V70H133.777V68ZM92.7855 45.52H111.217V43.52H92.7855V45.52ZM112.166 44.2018L102.95 16.7458L101.053 17.3822L110.269 44.8382L112.166 44.2018ZM101.053 16.7458L91.8375 44.2018L93.7335 44.8382L102.95 17.3822L101.053 16.7458ZM153.551 56.328H152.551V57.328H153.551V56.328ZM179.182 56.328H180.182V55.328H179.182V56.328ZM179.182 69V70H180.182V69H179.182ZM140.303 69H139.303V70H140.303V69ZM140.303 1.8V0.799995H139.303V1.8H140.303ZM153.551 1.8H154.551V0.799995H153.551V1.8ZM153.551 57.328H179.182V55.328H153.551V57.328ZM178.182 56.328V69H180.182V56.328H178.182ZM179.182 68H140.303V70H179.182V68ZM141.303 69V1.8H139.303V69H141.303ZM140.303 2.8H153.551V0.799995H140.303V2.8ZM152.551 1.8V56.328H154.551V1.8H152.551ZM199.957 56.328H198.957V57.328H199.957V56.328ZM225.589 56.328H226.589V55.328H225.589V56.328ZM225.589 69V70H226.589V69H225.589ZM186.709 69H185.709V70H186.709V69ZM186.709 1.8V0.799995H185.709V1.8H186.709ZM199.957 1.8H200.957V0.799995H199.957V1.8ZM199.957 57.328H225.589V55.328H199.957V57.328ZM224.589 56.328V69H226.589V56.328H224.589ZM225.589 68H186.709V70H225.589V68ZM187.709 69V1.8H185.709V69H187.709ZM186.709 2.8H199.957V0.799995H186.709V2.8ZM198.957 1.8V56.328H200.957V1.8H198.957ZM246.363 56.328H245.363V57.328H246.363V56.328ZM274.683 56.328H275.683V55.328H274.683V56.328ZM274.683 69V70H275.683V69H274.683ZM233.115 69H232.115V70H233.115V69ZM233.115 1.8V0.799995H232.115V1.8H233.115ZM274.203 1.8H275.203V0.799995H274.203V1.8ZM274.203 14.472V15.472H275.203V14.472H274.203ZM246.363 14.472V13.472H245.363V14.472H246.363ZM246.363 28.776H245.363V29.776H246.363V28.776ZM271.803 28.776H272.803V27.776H271.803V28.776ZM271.803 41.256V42.256H272.803V41.256H271.803ZM246.363 41.256V40.256H245.363V41.256H246.363ZM246.363 57.328H274.683V55.328H246.363V57.328ZM273.683 56.328V69H275.683V56.328H273.683ZM274.683 68H233.115V70H274.683V68ZM234.115 69V1.8H232.115V69H234.115ZM233.115 2.8H274.203V0.799995H233.115V2.8ZM273.203 1.8V14.472H275.203V1.8H273.203ZM274.203 13.472H246.363V15.472H274.203V13.472ZM245.363 14.472V28.776H247.363V14.472H245.363ZM246.363 29.776H271.803V27.776H246.363V29.776ZM270.803 28.776V41.256H272.803V28.776H270.803ZM271.803 40.256H246.363V42.256H271.803V40.256ZM245.363 41.256V56.328H247.363V41.256H245.363ZM320.885 69L320.02 69.5019L320.309 70H320.885V69ZM307.349 45.672L308.214 45.1701L307.925 44.672H307.349V45.672ZM297.269 45.672V44.672H296.269V45.672H297.269ZM297.269 69V70H298.269V69H297.269ZM284.021 69H283.021V70H284.021V69ZM284.021 1.8V0.799995H283.021V1.8H284.021ZM326.741 8.328L327.448 7.62089V7.62089L326.741 8.328ZM329.717 35.688L330.547 36.2462L330.552 36.2393L329.717 35.688ZM320.309 43.656L319.892 42.7472L318.887 43.2086L319.447 44.1623L320.309 43.656ZM335.189 69V70H336.936L336.052 68.4937L335.189 69ZM297.269 14.184V13.184H296.269V14.184H297.269ZM297.269 34.056H296.269V35.056H297.269V34.056ZM317.333 31.176L318.064 31.8583L318.07 31.8523L318.075 31.8463L317.333 31.176ZM317.333 17.064L316.602 17.7463L317.333 17.064ZM321.75 68.4981L308.214 45.1701L306.484 46.1739L320.02 69.5019L321.75 68.4981ZM307.349 44.672H297.269V46.672H307.349V44.672ZM296.269 45.672V69H298.269V45.672H296.269ZM297.269 68H284.021V70H297.269V68ZM285.021 69V1.8H283.021V69H285.021ZM284.021 2.8H310.901V0.799995H284.021V2.8ZM310.901 2.8C316.847 2.8 321.871 4.87246 326.034 9.0351L327.448 7.62089C322.907 3.07953 317.372 0.799995 310.901 0.799995V2.8ZM326.034 9.0351C330.199 13.1999 332.269 18.1937 332.269 24.072H334.269C334.269 17.6623 331.988 12.1601 327.448 7.62089L326.034 9.0351ZM332.269 24.072C332.269 28.0293 331.147 31.7106 328.883 35.1367L330.552 36.2393C333.024 32.4974 334.269 28.4347 334.269 24.072H332.269ZM328.888 35.1298C326.624 38.4952 323.631 41.0309 319.892 42.7472L320.726 44.5648C324.795 42.6971 328.075 39.9208 330.547 36.2462L328.888 35.1298ZM319.447 44.1623L334.327 69.5063L336.052 68.4937L321.172 43.1497L319.447 44.1623ZM335.189 68H320.885V70H335.189V68ZM296.269 14.184V34.056H298.269V14.184H296.269ZM297.269 35.056H310.901V33.056H297.269V35.056ZM310.901 35.056C313.69 35.056 316.094 33.9691 318.064 31.8583L316.602 30.4937C314.988 32.2229 313.104 33.056 310.901 33.056V35.056ZM318.075 31.8463C320.039 29.6726 321.021 27.0636 321.021 24.072H319.021C319.021 26.5844 318.212 28.7114 316.591 30.5057L318.075 31.8463ZM321.021 24.072C321.021 21.0801 320.038 18.4964 318.064 16.3817L316.602 17.7463C318.212 19.4716 319.021 21.5599 319.021 24.072H321.021ZM318.064 16.3817C316.094 14.2709 313.69 13.184 310.901 13.184V15.184C313.104 15.184 314.988 16.017 316.602 17.7463L318.064 16.3817ZM310.901 13.184H297.269V15.184H310.901V13.184ZM394.299 1.8L395.171 2.28997L396.008 0.799995H394.299V1.8ZM371.259 42.792L370.387 42.302L370.259 42.5302V42.792H371.259ZM371.259 69V70H372.259V69H371.259ZM358.107 69H357.107V70H358.107V69ZM358.107 42.792H359.107V42.5312L358.98 42.3036L358.107 42.792ZM335.163 1.8V0.799995H333.457L334.29 2.28841L335.163 1.8ZM350.139 1.8L351.026 1.33826L350.746 0.799995H350.139V1.8ZM364.731 29.832L363.844 30.2937L364.731 31.9977L365.618 30.2937L364.731 29.832ZM379.323 1.8V0.799995H378.716L378.436 1.33826L379.323 1.8ZM393.427 1.31002L370.387 42.302L372.131 43.282L395.171 2.28997L393.427 1.31002ZM370.259 42.792V69H372.259V42.792H370.259ZM371.259 68H358.107V70H371.259V68ZM359.107 69V42.792H357.107V69H359.107ZM358.98 42.3036L336.036 1.31158L334.29 2.28841L357.234 43.2804L358.98 42.3036ZM335.163 2.8H350.139V0.799995H335.163V2.8ZM349.252 2.26173L363.844 30.2937L365.618 29.3703L351.026 1.33826L349.252 2.26173ZM365.618 30.2937L380.21 2.26173L378.436 1.33826L363.844 29.3703L365.618 30.2937ZM379.323 2.8H394.299V0.799995H379.323V2.8Z" fill="#20242D"/>
</g>
</svg>
