<svg width="208" height="71" viewBox="0 0 208 71" fill="none" xmlns="http://www.w3.org/2000/svg">
<path opacity="0.1" d="M0.240001 1.8V0.799995H-0.759999V1.8H0.240001ZM13.488 1.8H14.488V0.799995H13.488V1.8ZM13.488 69V70H14.488V69H13.488ZM0.240001 69H-0.759999V70H0.240001V69ZM0.240001 2.8H13.488V0.799995H0.240001V2.8ZM12.488 1.8V69H14.488V1.8H12.488ZM13.488 68H0.240001V70H13.488V68ZM1.24 69V1.8H-0.759999V69H1.24ZM64.8075 1.8V0.799995H63.8075V1.8H64.8075ZM78.0555 1.8H79.0555V0.799995H78.0555V1.8ZM78.0555 69V70H79.0555V69H78.0555ZM67.9755 69L67.1566 69.574L67.4552 70H67.9755V69ZM39.1755 27.912L39.9944 27.338L38.1755 24.7431V27.912H39.1755ZM39.1755 69V70H40.1755V69H39.1755ZM25.9275 69H24.9275V70H25.9275V69ZM25.9275 1.8V0.799995H24.9275V1.8H25.9275ZM36.0075 1.8L36.8257 1.22512L36.5271 0.799995H36.0075V1.8ZM64.8075 42.792L63.9893 43.3669L65.8075 45.9548V42.792H64.8075ZM64.8075 2.8H78.0555V0.799995H64.8075V2.8ZM77.0555 1.8V69H79.0555V1.8H77.0555ZM78.0555 68H67.9755V70H78.0555V68ZM68.7944 68.426L39.9944 27.338L38.3566 28.486L67.1566 69.574L68.7944 68.426ZM38.1755 27.912V69H40.1755V27.912H38.1755ZM39.1755 68H25.9275V70H39.1755V68ZM26.9275 69V1.8H24.9275V69H26.9275ZM25.9275 2.8H36.0075V0.799995H25.9275V2.8ZM35.1893 2.37487L63.9893 43.3669L65.6257 42.2171L36.8257 1.22512L35.1893 2.37487ZM65.8075 42.792V1.8H63.8075V42.792H65.8075ZM130.649 14.472V15.472H131.649V14.472H130.649ZM103.769 14.472V13.472H102.769V14.472H103.769ZM103.769 30.408H102.769V31.408H103.769V30.408ZM129.881 30.408H130.881V29.408H129.881V30.408ZM129.881 43.08V44.08H130.881V43.08H129.881ZM103.769 43.08V42.08H102.769V43.08H103.769ZM103.769 69V70H104.769V69H103.769ZM90.5212 69H89.5212V70H90.5212V69ZM90.5212 1.8V0.799995H89.5212V1.8H90.5212ZM130.649 1.8H131.649V0.799995H130.649V1.8ZM130.649 13.472H103.769V15.472H130.649V13.472ZM102.769 14.472V30.408H104.769V14.472H102.769ZM103.769 31.408H129.881V29.408H103.769V31.408ZM128.881 30.408V43.08H130.881V30.408H128.881ZM129.881 42.08H103.769V44.08H129.881V42.08ZM102.769 43.08V69H104.769V43.08H102.769ZM103.769 68H90.5212V70H103.769V68ZM91.5212 69V1.8H89.5212V69H91.5212ZM90.5212 2.8H130.649V0.799995H90.5212V2.8ZM129.649 1.8V14.472H131.649V1.8H129.649ZM196.846 60.264L197.55 60.9745L197.554 60.9711L196.846 60.264ZM147.311 60.264L146.6 60.9678L146.607 60.9744L147.311 60.264ZM147.311 10.632L146.603 9.92489L147.311 10.632ZM196.846 10.632L196.139 11.3391L196.143 11.3424L196.846 10.632ZM156.622 51.24L155.915 51.9471L155.921 51.9526L156.622 51.24ZM187.535 51.24L188.236 51.9526L188.242 51.9471L187.535 51.24ZM187.535 19.56L188.242 18.8529L187.535 19.56ZM156.622 19.56L155.915 18.8529L156.622 19.56ZM196.143 59.5536C189.55 66.0842 181.548 69.344 172.079 69.344V71.344C182.065 71.344 190.575 67.8838 197.55 60.9744L196.143 59.5536ZM172.079 69.344C162.609 69.344 154.607 66.0842 148.014 59.5536L146.607 60.9744C153.582 67.8838 162.092 71.344 172.079 71.344V69.344ZM148.021 59.5602C141.492 52.9688 138.23 44.9359 138.23 35.4H136.23C136.23 45.4481 139.689 53.9912 146.6 60.9678L148.021 59.5602ZM138.23 35.4C138.23 25.8642 141.491 17.8653 148.018 11.3391L146.603 9.92489C139.69 16.8387 136.23 25.3518 136.23 35.4H138.23ZM148.018 11.3391C154.611 4.74556 162.612 1.456 172.079 1.456V-0.544004C162.089 -0.544004 153.578 2.95043 146.603 9.92489L148.018 11.3391ZM172.079 1.456C181.545 1.456 189.546 4.74556 196.139 11.3391L197.554 9.92489C190.579 2.95043 182.068 -0.544004 172.079 -0.544004V1.456ZM196.143 11.3424C202.732 17.8694 206.023 25.8672 206.023 35.4H208.023C208.023 25.3488 204.529 16.8346 197.55 9.92155L196.143 11.3424ZM206.023 35.4C206.023 44.9329 202.732 52.9647 196.139 59.5569L197.554 60.9711C204.529 53.9953 208.023 45.4511 208.023 35.4H206.023ZM155.921 51.9526C160.279 56.2432 165.687 58.384 172.079 58.384V56.384C166.182 56.384 161.286 54.4288 157.324 50.5274L155.921 51.9526ZM172.079 58.384C178.47 58.384 183.878 56.2432 188.236 51.9526L186.833 50.5274C182.871 54.4288 177.975 56.384 172.079 56.384V58.384ZM188.242 51.9471C192.607 47.5822 194.775 42.0395 194.775 35.4H192.775C192.775 41.5605 190.782 46.5778 186.827 50.5329L188.242 51.9471ZM194.775 35.4C194.775 28.7605 192.607 23.2178 188.242 18.8529L186.827 20.2671C190.782 24.2222 192.775 29.2395 192.775 35.4H194.775ZM188.242 18.8529C183.885 14.4963 178.475 12.32 172.079 12.32V14.32C177.97 14.32 182.864 16.3037 186.827 20.2671L188.242 18.8529ZM172.079 12.32C165.682 12.32 160.272 14.4963 155.915 18.8529L157.33 20.2671C161.293 16.3037 166.187 14.32 172.079 14.32V12.32ZM155.915 18.8529C151.55 23.2178 149.383 28.7605 149.383 35.4H151.383C151.383 29.2395 153.375 24.2222 157.33 20.2671L155.915 18.8529ZM149.383 35.4C149.383 42.0395 151.55 47.5822 155.915 51.9471L157.33 50.5329C153.375 46.5778 151.383 41.5605 151.383 35.4H149.383Z" fill="#20242D"/>
</svg>
