<svg width="521" height="71" viewBox="0 0 521 71" fill="none" xmlns="http://www.w3.org/2000/svg">
<path opacity="0.3" d="M0.240001 1.8V0.799995H-0.759999V1.8H0.240001ZM13.488 1.8H14.488V0.799995H13.488V1.8ZM13.488 69V70H14.488V69H13.488ZM0.240001 69H-0.759999V70H0.240001V69ZM0.240001 2.8H13.488V0.799995H0.240001V2.8ZM12.488 1.8V69H14.488V1.8H12.488ZM13.488 68H0.240001V70H13.488V68ZM1.24 69V1.8H-0.759999V69H1.24ZM64.8075 1.8V0.799995H63.8075V1.8H64.8075ZM78.0555 1.8H79.0555V0.799995H78.0555V1.8ZM78.0555 69V70H79.0555V69H78.0555ZM67.9755 69L67.1566 69.574L67.4552 70H67.9755V69ZM39.1755 27.912L39.9944 27.338L38.1755 24.7431V27.912H39.1755ZM39.1755 69V70H40.1755V69H39.1755ZM25.9275 69H24.9275V70H25.9275V69ZM25.9275 1.8V0.799995H24.9275V1.8H25.9275ZM36.0075 1.8L36.8257 1.22512L36.5271 0.799995H36.0075V1.8ZM64.8075 42.792L63.9893 43.3669L65.8075 45.9548V42.792H64.8075ZM64.8075 2.8H78.0555V0.799995H64.8075V2.8ZM77.0555 1.8V69H79.0555V1.8H77.0555ZM78.0555 68H67.9755V70H78.0555V68ZM68.7944 68.426L39.9944 27.338L38.3566 28.486L67.1566 69.574L68.7944 68.426ZM38.1755 27.912V69H40.1755V27.912H38.1755ZM39.1755 68H25.9275V70H39.1755V68ZM26.9275 69V1.8H24.9275V69H26.9275ZM25.9275 2.8H36.0075V0.799995H25.9275V2.8ZM35.1893 2.37487L63.9893 43.3669L65.6257 42.2171L36.8257 1.22512L35.1893 2.37487ZM65.8075 42.792V1.8H63.8075V42.792H65.8075ZM95.634 65.928L95.082 66.7619L95.0903 66.7673L95.634 65.928ZM86.034 53.736L85.5292 52.8727L84.8099 53.2934L85.0939 54.0768L86.034 53.736ZM97.362 47.112L98.2958 46.7542L97.8742 45.6541L96.8572 46.2487L97.362 47.112ZM120.978 55.368L120.364 54.5786L120.978 55.368ZM120.402 44.808L119.865 45.6517L119.874 45.6575L119.884 45.6632L120.402 44.808ZM109.074 40.488L108.789 41.4464L108.795 41.4484L108.802 41.4504L109.074 40.488ZM101.394 37.8L100.993 38.7162L101.003 38.7206L101.394 37.8ZM95.154 34.248L94.554 35.048L94.5679 35.0584L94.5822 35.0684L95.154 34.248ZM90.45 28.488L89.5458 28.915L90.45 28.488ZM95.25 5.928L95.8913 6.69528L95.8924 6.69437L95.25 5.928ZM125.202 4.488L124.653 5.32404L124.661 5.32899L124.669 5.33379L125.202 4.488ZM134.898 15.528L135.398 16.3939L136.205 15.9281L135.797 15.0905L134.898 15.528ZM123.762 21.96L122.856 22.3829L123.317 23.3717L124.262 22.8259L123.762 21.96ZM104.37 15.24L104.991 16.0241L104.995 16.0209L104.37 15.24ZM104.658 25.224L104.044 26.0133L104.06 26.0259L104.077 26.0377L104.658 25.224ZM114.834 29.448L115.132 28.4935L115.128 28.4922L114.834 29.448ZM119.442 30.984L119.091 31.9203L119.125 31.9331L119.16 31.9434L119.442 30.984ZM123.762 32.616L123.368 33.5351L123.388 33.5435L123.407 33.551L123.762 32.616ZM127.986 34.632L127.431 35.4641L127.444 35.4722L127.456 35.48L127.986 34.632ZM131.442 37.224L132.09 36.4621L131.442 37.224ZM134.322 40.584L133.448 41.0696L133.458 41.0878L133.469 41.1054L134.322 40.584ZM136.05 44.808L135.084 45.068L135.09 45.0905L135.098 45.1128L136.05 44.808ZM130.002 64.872L129.376 64.0922L129.371 64.0966L130.002 64.872ZM112.434 69.344C105.927 69.344 100.526 67.906 96.1777 65.0887L95.0903 66.7673C99.8298 69.838 105.629 71.344 112.434 71.344V69.344ZM96.186 65.0941C91.8208 62.2045 88.757 58.3133 86.9741 53.3952L85.0939 54.0768C87.023 59.3987 90.3592 63.6355 95.082 66.7619L96.186 65.0941ZM86.5388 54.5992L97.8668 47.9752L96.8572 46.2487L85.5292 52.8727L86.5388 54.5992ZM96.4282 47.4698C97.8004 51.0509 99.8612 53.8017 102.64 55.6488C105.416 57.4936 108.829 58.384 112.818 58.384V56.384C109.127 56.384 106.124 55.5624 103.748 53.9832C101.375 52.4063 99.5476 50.0211 98.2958 46.7542L96.4282 47.4698ZM112.818 58.384C116.612 58.384 119.603 57.7044 121.592 56.1573L120.364 54.5786C118.897 55.7196 116.448 56.384 112.818 56.384V58.384ZM121.592 56.1573C123.544 54.639 124.57 52.6604 124.57 50.28H122.57C122.57 51.9956 121.868 53.409 120.364 54.5786L121.592 56.1573ZM124.57 50.28C124.57 47.5444 123.316 45.4046 120.92 43.9528L119.884 45.6632C121.712 46.7714 122.57 48.2796 122.57 50.28H124.57ZM120.939 43.9643C118.693 42.535 114.792 41.0634 109.346 39.5256L108.802 41.4504C114.236 42.9846 117.887 44.393 119.865 45.6517L120.939 43.9643ZM109.359 39.5296C106.375 38.6407 103.852 37.7567 101.785 36.8794L101.003 38.7206C103.16 39.6353 105.757 40.5433 108.789 41.4464L109.359 39.5296ZM101.795 36.8838C99.815 36.0177 97.792 34.8677 95.7258 33.4276L94.5822 35.0684C96.74 36.5723 98.877 37.7903 100.993 38.7162L101.795 36.8838ZM95.754 33.448C93.8356 32.0092 92.3724 30.217 91.3542 28.061L89.5458 28.915C90.7036 31.367 92.3764 33.4148 94.554 35.048L95.754 33.448ZM91.3542 28.061C90.3409 25.9151 89.818 23.3782 89.818 20.424H87.818C87.818 23.6138 88.3831 26.4529 89.5458 28.915L91.3542 28.061ZM89.818 20.424C89.818 14.6107 91.8524 10.0711 95.8913 6.69528L94.6087 5.16072C90.0716 8.95291 87.818 14.0773 87.818 20.424H89.818ZM95.8924 6.69437C100.051 3.2084 105.035 1.456 110.898 1.456V-0.544004C104.601 -0.544004 99.1529 1.35159 94.6076 5.16163L95.8924 6.69437ZM110.898 1.456C116.165 1.456 120.738 2.75463 124.653 5.32404L125.751 3.65195C121.474 0.845364 116.511 -0.544004 110.898 -0.544004V1.456ZM124.669 5.33379C128.66 7.85132 131.77 11.3846 133.999 15.9655L135.797 15.0905C133.418 10.1994 130.064 6.37267 125.736 3.6422L124.669 5.33379ZM134.398 14.6621L123.262 21.0941L124.262 22.8259L135.398 16.3939L134.398 14.6621ZM124.668 21.5371C123.265 18.5301 121.414 16.2124 119.088 14.6499C116.756 13.0842 114.012 12.32 110.898 12.32V14.32C113.672 14.32 116.016 14.9958 117.972 16.3101C119.934 17.6276 121.571 19.6299 122.856 22.3829L124.668 21.5371ZM110.898 12.32C107.997 12.32 105.575 12.9953 103.745 14.4591L104.995 16.0209C106.365 14.9247 108.295 14.32 110.898 14.32V12.32ZM103.749 14.456C101.97 15.8644 101.066 17.755 101.066 20.04H103.066C103.066 18.357 103.698 17.0476 104.991 16.024L103.749 14.456ZM101.066 20.04C101.066 22.4735 102.083 24.488 104.044 26.0133L105.272 24.4346C103.777 23.272 103.066 21.8305 103.066 20.04H101.066ZM104.077 26.0377C106.014 27.4214 109.548 28.8677 114.54 30.4038L115.128 28.4922C110.136 26.9563 106.886 25.5866 105.239 24.4103L104.077 26.0377ZM114.536 30.4025C116.579 31.0411 118.094 31.5464 119.091 31.9203L119.793 30.0477C118.742 29.6536 117.185 29.1349 115.132 28.4935L114.536 30.4025ZM119.16 31.9434C120.192 32.247 121.591 32.7734 123.368 33.5351L124.156 31.6969C122.349 30.9226 120.868 30.361 119.724 30.0246L119.16 31.9434ZM123.407 33.551C125.236 34.2445 126.563 34.8851 127.431 35.4641L128.541 33.7999C127.489 33.0989 126 32.3955 124.117 31.681L123.407 33.551ZM127.456 35.48C128.426 36.0864 129.538 36.9183 130.794 37.9859L132.09 36.4621C130.786 35.3537 129.594 34.4576 128.516 33.784L127.456 35.48ZM130.794 37.9859C132.007 39.0166 132.88 40.047 133.448 41.0696L135.196 40.0984C134.484 38.817 133.437 37.6074 132.09 36.4621L130.794 37.9859ZM133.469 41.1054C134.111 42.1572 134.655 43.472 135.084 45.068L137.016 44.548C136.549 42.816 135.941 41.3147 135.175 40.0625L133.469 41.1054ZM135.098 45.1128C135.574 46.6013 135.818 48.2569 135.818 50.088H137.818C137.818 48.0791 137.55 46.2147 137.002 44.5032L135.098 45.1128ZM135.818 50.088C135.818 56.0156 133.666 60.6478 129.376 64.0922L130.628 65.6518C135.426 61.8002 137.818 56.5764 137.818 50.088H135.818ZM129.371 64.0966C125.11 67.5658 119.495 69.344 112.434 69.344V71.344C119.837 71.344 125.934 69.4742 130.633 65.6474L129.371 64.0966ZM187.469 1.8H188.469V0.799995H187.469V1.8ZM187.469 14.472V15.472H188.469V14.472H187.469ZM169.325 14.472V13.472H168.325V14.472H169.325ZM169.325 69V70H170.325V69H169.325ZM156.077 69H155.077V70H156.077V69ZM156.077 14.472H157.077V13.472H156.077V14.472ZM138.029 14.472H137.029V15.472H138.029V14.472ZM138.029 1.8V0.799995H137.029V1.8H138.029ZM186.469 1.8V14.472H188.469V1.8H186.469ZM187.469 13.472H169.325V15.472H187.469V13.472ZM168.325 14.472V69H170.325V14.472H168.325ZM169.325 68H156.077V70H169.325V68ZM157.077 69V14.472H155.077V69H157.077ZM156.077 13.472H138.029V15.472H156.077V13.472ZM139.029 14.472V1.8H137.029V14.472H139.029ZM138.029 2.8H187.469V0.799995H138.029V2.8ZM233.19 69L232.241 69.3162L232.469 70H233.19V69ZM229.158 56.904L230.107 56.5878L229.879 55.904H229.158V56.904ZM202.374 56.904V55.904H201.653L201.425 56.5878L202.374 56.904ZM198.342 69V70H199.063L199.291 69.3162L198.342 69ZM184.038 69L183.094 68.6696L182.629 70H184.038V69ZM207.558 1.8V0.799995H206.849L206.614 1.46964L207.558 1.8ZM223.974 1.8L224.917 1.46844L224.683 0.799995H223.974V1.8ZM247.59 69V70H249.001L248.533 68.6684L247.59 69ZM206.598 44.52L205.65 44.2018L205.208 45.52H206.598V44.52ZM225.03 44.52V45.52H226.421L225.978 44.2018L225.03 44.52ZM215.814 17.064L216.762 16.7458L215.814 13.9215L214.866 16.7458L215.814 17.064ZM234.139 68.6838L230.107 56.5878L228.209 57.2202L232.241 69.3162L234.139 68.6838ZM229.158 55.904H202.374V57.904H229.158V55.904ZM201.425 56.5878L197.393 68.6838L199.291 69.3162L203.323 57.2202L201.425 56.5878ZM198.342 68H184.038V70H198.342V68ZM184.982 69.3304L208.502 2.13035L206.614 1.46964L183.094 68.6696L184.982 69.3304ZM207.558 2.8H223.974V0.799995H207.558V2.8ZM223.031 2.13155L246.647 69.3316L248.533 68.6684L224.917 1.46844L223.031 2.13155ZM247.59 68H233.19V70H247.59V68ZM206.598 45.52H225.03V43.52H206.598V45.52ZM225.978 44.2018L216.762 16.7458L214.866 17.3822L224.082 44.8382L225.978 44.2018ZM214.866 16.7458L205.65 44.2018L207.546 44.8382L216.762 17.3822L214.866 16.7458ZM267.363 56.328H266.363V57.328H267.363V56.328ZM292.995 56.328H293.995V55.328H292.995V56.328ZM292.995 69V70H293.995V69H292.995ZM254.115 69H253.115V70H254.115V69ZM254.115 1.8V0.799995H253.115V1.8H254.115ZM267.363 1.8H268.363V0.799995H267.363V1.8ZM267.363 57.328H292.995V55.328H267.363V57.328ZM291.995 56.328V69H293.995V56.328H291.995ZM292.995 68H254.115V70H292.995V68ZM255.115 69V1.8H253.115V69H255.115ZM254.115 2.8H267.363V0.799995H254.115V2.8ZM266.363 1.8V56.328H268.363V1.8H266.363ZM345.596 69L344.648 69.3162L344.875 70H345.596V69ZM341.564 56.904L342.513 56.5878L342.285 55.904H341.564V56.904ZM314.78 56.904V55.904H314.059L313.832 56.5878L314.78 56.904ZM310.748 69V70H311.469L311.697 69.3162L310.748 69ZM296.444 69L295.5 68.6696L295.035 70H296.444V69ZM319.964 1.8V0.799995H319.255L319.02 1.46964L319.964 1.8ZM336.38 1.8L337.324 1.46844L337.089 0.799995H336.38V1.8ZM359.996 69V70H361.408L360.94 68.6684L359.996 69ZM319.004 44.52L318.056 44.2018L317.614 45.52H319.004V44.52ZM337.436 44.52V45.52H338.827L338.384 44.2018L337.436 44.52ZM328.22 17.064L329.168 16.7458L328.22 13.9215L327.272 16.7458L328.22 17.064ZM346.545 68.6838L342.513 56.5878L340.616 57.2202L344.648 69.3162L346.545 68.6838ZM341.564 55.904H314.78V57.904H341.564V55.904ZM313.832 56.5878L309.8 68.6838L311.697 69.3162L315.729 57.2202L313.832 56.5878ZM310.748 68H296.444V70H310.748V68ZM297.388 69.3304L320.908 2.13035L319.02 1.46964L295.5 68.6696L297.388 69.3304ZM319.964 2.8H336.38V0.799995H319.964V2.8ZM335.437 2.13155L359.053 69.3316L360.94 68.6684L337.324 1.46844L335.437 2.13155ZM359.996 68H345.596V70H359.996V68ZM319.004 45.52H337.436V43.52H319.004V45.52ZM338.384 44.2018L329.168 16.7458L327.272 17.3822L336.488 44.8382L338.384 44.2018ZM327.272 16.7458L318.056 44.2018L319.952 44.8382L329.168 17.3822L327.272 16.7458ZM370.9 60.264L371.614 59.5637L370.9 60.264ZM370.9 10.536L371.61 11.2397L371.614 11.2363L370.9 10.536ZM412.756 4.776L412.266 5.64757L412.272 5.65119L412.278 5.65472L412.756 4.776ZM424.852 16.296L425.353 17.1611L426.226 16.6549L425.712 15.7865L424.852 16.296ZM413.428 22.92L412.553 23.4041L413.047 24.2969L413.929 23.7851L413.428 22.92ZM406.324 15.912L405.833 16.7836L405.84 16.7875L405.847 16.7913L406.324 15.912ZM380.116 19.464L379.403 18.7625L379.398 18.7682L380.116 19.464ZM380.116 51.24L379.397 51.9358L379.403 51.9415L380.116 51.24ZM406.324 54.888L406.8 55.7673L406.806 55.7638L406.324 54.888ZM413.428 47.88L413.929 47.0149L413.04 46.4992L412.549 47.4025L413.428 47.88ZM424.852 54.504L425.712 55.0135L426.226 54.1451L425.353 53.6389L424.852 54.504ZM412.852 66.12L413.334 66.9963L413.342 66.9916L412.852 66.12ZM395.956 69.344C386.09 69.344 378.003 66.0768 371.614 59.5637L370.186 60.9643C376.981 67.8912 385.597 71.344 395.956 71.344V69.344ZM371.614 59.5637C365.214 53.0402 362.012 45.0078 362.012 35.4H360.012C360.012 45.5042 363.401 54.0478 370.186 60.9643L371.614 59.5637ZM362.012 35.4C362.012 25.7263 365.215 17.6965 371.61 11.2397L370.189 9.83232C363.4 16.6875 360.012 25.2337 360.012 35.4H362.012ZM371.614 11.2363C378.003 4.72321 386.09 1.456 395.956 1.456V-0.544004C385.597 -0.544004 376.981 2.90878 370.186 9.83572L371.614 11.2363ZM395.956 1.456C401.87 1.456 407.301 2.85479 412.266 5.64757L413.246 3.90442C407.971 0.937206 402.201 -0.544004 395.956 -0.544004V1.456ZM412.278 5.65472C417.311 8.38844 421.207 12.1039 423.991 16.8055L425.712 15.7865C422.736 10.7601 418.569 6.79556 413.233 3.89727L412.278 5.65472ZM424.35 15.4309L412.926 22.0549L413.929 23.7851L425.353 17.1611L424.35 15.4309ZM414.303 22.4359C412.545 19.2579 410.037 16.7861 406.8 15.0327L405.847 16.7913C408.754 18.3659 410.983 20.566 412.553 23.4041L414.303 22.4359ZM406.814 15.0404C403.579 13.2208 399.952 12.32 395.956 12.32V14.32C399.64 14.32 402.924 15.1472 405.833 16.7836L406.814 15.0404ZM395.956 12.32C389.199 12.32 383.649 14.449 379.403 18.7625L380.828 20.1655C384.646 16.287 389.656 14.32 395.956 14.32V12.32ZM379.398 18.7682C375.222 23.078 373.164 28.6529 373.164 35.4H375.164C375.164 29.0911 377.073 24.042 380.834 20.1598L379.398 18.7682ZM373.164 35.4C373.164 42.0862 375.224 47.6279 379.398 51.9358L380.834 50.5442C377.071 46.6601 375.164 41.6418 375.164 35.4H373.164ZM379.403 51.9415C383.649 56.255 389.199 58.384 395.956 58.384V56.384C389.656 56.384 384.646 54.417 380.828 50.5385L379.403 51.9415ZM395.956 58.384C399.945 58.384 403.568 57.5182 406.8 55.7673L405.847 54.0087C402.936 55.5858 399.646 56.384 395.956 56.384V58.384ZM406.806 55.7638C410.098 53.9502 412.609 51.481 414.306 48.3575L412.549 47.4025C411.047 50.167 408.822 52.3698 405.841 54.0122L406.806 55.7638ZM412.926 48.7451L424.35 55.3691L425.353 53.6389L413.929 47.0149L412.926 48.7451ZM423.991 53.9945C421.204 58.7013 417.335 62.451 412.361 65.2484L413.342 66.9916C418.609 64.029 422.739 60.0347 425.712 55.0135L423.991 53.9945ZM412.37 65.2438C407.405 67.9744 401.94 69.344 395.956 69.344V71.344C402.259 71.344 408.058 69.8976 413.334 66.9962L412.37 65.2438ZM427.949 57.576L427.453 56.7078L426.634 57.1757L427.053 58.0205L427.949 57.576ZM439.373 51.048L440.268 50.6008L439.795 49.6553L438.877 50.1798L439.373 51.048ZM457.997 54.888L458.691 55.6083L457.997 54.888ZM460.589 1.8V0.799995H459.589V1.8H460.589ZM473.741 1.8H474.741V0.799995H473.741V1.8ZM467.117 64.488L466.455 63.7388L467.117 64.488ZM450.125 69.344C444.979 69.344 440.672 68.3075 437.16 66.2854C433.654 64.2669 430.88 61.2316 428.845 57.1315L427.053 58.0205C429.243 62.4324 432.276 65.7811 436.162 68.0186C440.042 70.2525 444.711 71.344 450.125 71.344V69.344ZM428.445 58.4442L439.869 51.9162L438.877 50.1798L427.453 56.7078L428.445 58.4442ZM438.479 51.4952C439.609 53.7557 441.158 55.4948 443.138 56.6615C445.113 57.8259 447.457 58.384 450.125 58.384V56.384C447.737 56.384 445.761 55.8861 444.153 54.9385C442.549 53.9932 441.249 52.5643 440.268 50.6008L438.479 51.4952ZM450.125 58.384C453.784 58.384 456.705 57.5205 458.691 55.6083L457.304 54.1677C455.833 55.5835 453.506 56.384 450.125 56.384V58.384ZM458.691 55.6083C460.653 53.7187 461.589 51.1651 461.589 48.072H459.589C459.589 50.7389 458.797 52.7293 457.304 54.1677L458.691 55.6083ZM461.589 48.072V1.8H459.589V48.072H461.589ZM460.589 2.8H473.741V0.799995H460.589V2.8ZM472.741 1.8V48.072H474.741V1.8H472.741ZM472.741 48.072C472.741 54.8863 470.614 60.0615 466.455 63.7388L467.78 65.2372C472.452 61.1065 474.741 55.3377 474.741 48.072H472.741ZM466.455 63.7388C462.253 67.4539 456.838 69.344 450.125 69.344V71.344C457.237 71.344 463.15 69.3301 467.78 65.2372L466.455 63.7388ZM527.003 69L526.054 69.3162L526.282 70H527.003V69ZM522.971 56.904L523.919 56.5878L523.691 55.904H522.971V56.904ZM496.186 56.904V55.904H495.466L495.238 56.5878L496.186 56.904ZM492.155 69V70H492.875L493.103 69.3162L492.155 69ZM477.85 69L476.907 68.6696L476.441 70H477.85V69ZM501.371 1.8V0.799995H500.661L500.427 1.46964L501.371 1.8ZM517.786 1.8L518.73 1.46844L518.495 0.799995H517.786V1.8ZM541.403 69V70H542.814L542.346 68.6684L541.403 69ZM500.41 44.52L499.462 44.2018L499.02 45.52H500.41V44.52ZM518.843 44.52V45.52H520.233L519.791 44.2018L518.843 44.52ZM509.627 17.064L510.575 16.7458L509.627 13.9215L508.678 16.7458L509.627 17.064ZM527.951 68.6838L523.919 56.5878L522.022 57.2202L526.054 69.3162L527.951 68.6838ZM522.971 55.904H496.186V57.904H522.971V55.904ZM495.238 56.5878L491.206 68.6838L493.103 69.3162L497.135 57.2202L495.238 56.5878ZM492.155 68H477.85V70H492.155V68ZM478.794 69.3304L502.314 2.13035L500.427 1.46964L476.907 68.6696L478.794 69.3304ZM501.371 2.8H517.786V0.799995H501.371V2.8ZM516.843 2.13155L540.459 69.3316L542.346 68.6684L518.73 1.46844L516.843 2.13155ZM541.403 68H527.003V70H541.403V68ZM500.41 45.52H518.843V43.52H500.41V45.52ZM519.791 44.2018L510.575 16.7458L508.678 17.3822L517.894 44.8382L519.791 44.2018ZM508.678 16.7458L499.462 44.2018L501.359 44.8382L510.575 17.3822L508.678 16.7458Z" fill="white"/>
</svg>
