<svg width="12" height="15" viewBox="0 0 12 15" fill="none" xmlns="http://www.w3.org/2000/svg">
<path d="M10.2427 10.576L6 14.8187L1.75734 10.576C0.918228 9.73687 0.346791 8.66777 0.115286 7.50389C-0.11622 6.34 0.00260456 5.13361 0.456732 4.03726C0.91086 2.9409 1.6799 2.00384 2.66659 1.34455C3.65328 0.685266 4.81332 0.333374 6 0.333374C7.18669 0.333374 8.34672 0.685266 9.33342 1.34455C10.3201 2.00384 11.0891 2.9409 11.5433 4.03726C11.9974 5.13361 12.1162 6.34 11.8847 7.50389C11.6532 8.66777 11.0818 9.73687 10.2427 10.576ZM6 7.66666C6.35362 7.66666 6.69276 7.52618 6.94281 7.27613C7.19286 7.02608 7.33334 6.68694 7.33334 6.33332C7.33334 5.9797 7.19286 5.64056 6.94281 5.39051C6.69276 5.14046 6.35362 4.99999 6 4.99999C5.64638 4.99999 5.30724 5.14046 5.05719 5.39051C4.80715 5.64056 4.66667 5.9797 4.66667 6.33332C4.66667 6.68694 4.80715 7.02608 5.05719 7.27613C5.30724 7.52618 5.64638 7.66666 6 7.66666Z" fill="#FF7129"/>
</svg>
