<svg width="374" height="88" viewBox="0 0 374 88" fill="none" xmlns="http://www.w3.org/2000/svg">
<path opacity="0.3" d="M12.48 82.16L11.928 82.9939L11.9363 82.9993L12.48 82.16ZM0.48 66.92L-0.0247803 66.0567L-0.744123 66.4774L-0.460136 67.2608L0.48 66.92ZM14.64 58.64L15.5738 58.2822L15.1522 57.182L14.1352 57.7767L14.64 58.64ZM44.16 68.96L43.5461 68.1706L44.16 68.96ZM43.44 55.76L42.9031 56.6037L42.9123 56.6095L42.9217 56.6152L43.44 55.76ZM29.28 50.36L28.9945 51.3184L29.0014 51.3204L29.0083 51.3224L29.28 50.36ZM19.68 47L19.2792 47.9162L19.2895 47.9206L19.68 47ZM11.88 42.56L11.28 43.36L11.2939 43.3704L11.3082 43.3804L11.88 42.56ZM6 35.36L5.09575 35.787L6 35.36ZM12 7.16L12.6413 7.92728L12.6424 7.92637L12 7.16ZM49.44 5.35999L48.8913 6.19604L48.8989 6.20098L48.9065 6.20579L49.44 5.35999ZM61.56 19.16L62.0602 20.0259L62.8667 19.5601L62.4592 18.7225L61.56 19.16ZM47.64 27.2L46.7338 27.6229L47.1953 28.6117L48.1402 28.0659L47.64 27.2ZM23.4 18.8L24.0207 19.5841L24.0247 19.5809L23.4 18.8ZM23.76 31.28L23.1461 32.0693L23.1622 32.0819L23.1788 32.0937L23.76 31.28ZM36.48 36.56L36.7783 35.6055L36.7741 35.6042L36.48 36.56ZM42.24 38.48L41.8889 39.4163L41.9229 39.4291L41.9578 39.4394L42.24 38.48ZM47.64 40.52L47.2461 41.4391L47.2655 41.4475L47.2854 41.455L47.64 40.52ZM52.92 43.04L52.3653 43.872L52.3775 43.8802L52.39 43.888L52.92 43.04ZM57.24 46.28L57.8877 45.5181L57.24 46.28ZM60.84 50.48L59.9658 50.9656L59.9759 50.9838L59.9867 51.0014L60.84 50.48ZM63 55.76L62.0344 56.02L62.0405 56.0425L62.0476 56.0648L63 55.76ZM55.44 80.84L54.814 80.0602L54.8086 80.0646L55.44 80.84ZM33.48 86.68C25.3085 86.68 18.5082 84.874 13.0237 81.3207L11.9363 82.9993C17.8118 86.806 25.0115 88.68 33.48 88.68V86.68ZM13.032 81.3261C7.5308 77.6845 3.66696 72.7773 1.42014 66.5792L-0.460136 67.2608C1.93304 73.8627 6.0692 79.1155 11.928 82.9939L13.032 81.3261ZM0.984781 67.7832L15.1448 59.5032L14.1352 57.7767L-0.0247803 66.0567L0.984781 67.7832ZM13.7062 58.9978C15.4064 63.4349 17.9532 66.8277 21.3765 69.1028C24.7962 71.3756 29.0108 72.48 33.96 72.48V70.48C29.3092 70.48 25.5038 69.4444 22.4835 67.4372C19.4668 65.4323 17.1536 62.4051 15.5738 58.2822L13.7062 58.9978ZM33.96 72.48C38.682 72.48 42.3529 71.6324 44.7739 69.7494L43.5461 68.1706C41.6471 69.6476 38.518 70.48 33.96 70.48V72.48ZM44.7739 69.7494C47.1581 67.895 48.4 65.4924 48.4 62.6H46.4C46.4 64.8276 45.4819 66.665 43.5461 68.1706L44.7739 69.7494ZM48.4 62.6C48.4 59.2724 46.8817 56.6766 43.9583 54.9048L42.9217 56.6152C45.2783 58.0434 46.4 60.0076 46.4 62.6H48.4ZM43.9769 54.9163C41.2028 53.151 36.3579 51.3194 29.5517 49.3976L29.0083 51.3224C35.8021 53.2406 40.3972 55.009 42.9031 56.6037L43.9769 54.9163ZM29.5655 49.4016C25.8292 48.2887 22.6664 47.1807 20.0706 46.0794L19.2895 47.9206C21.9736 49.0593 25.2108 50.1913 28.9945 51.3184L29.5655 49.4016ZM20.0808 46.0838C17.589 44.9937 15.046 43.5477 12.4518 41.7396L11.3082 43.3804C13.994 45.2523 16.651 46.7663 19.2792 47.9162L20.0808 46.0838ZM12.48 41.76C10.0496 39.9372 8.19437 37.665 6.90425 34.933L5.09575 35.787C6.52563 38.815 8.59037 41.3428 11.28 43.36L12.48 41.76ZM6.90425 34.933C5.61893 32.2111 4.96 29.0022 4.96 25.28H2.96C2.96 29.2378 3.66107 32.7489 5.09575 35.787L6.90425 34.933ZM4.96 25.28C4.96 17.9467 7.53039 12.1991 12.6413 7.92728L11.3587 6.39272C5.74961 11.0809 2.96 17.4133 2.96 25.28H4.96ZM12.6424 7.92637C17.8891 3.5284 24.177 1.31999 31.56 1.31999V-0.680006C23.743 -0.680006 16.9909 1.67159 11.3576 6.39363L12.6424 7.92637ZM31.56 1.31999C38.1874 1.31999 43.952 2.95463 48.8913 6.19604L49.9887 4.52395C44.688 1.04536 38.5326 -0.680006 31.56 -0.680006V1.31999ZM48.9065 6.20579C53.9377 9.37932 57.8563 13.8326 60.6608 19.5975L62.4592 18.7225C59.5038 12.6474 55.3423 7.90067 49.9735 4.5142L48.9065 6.20579ZM61.0599 18.2941L47.1399 26.3341L48.1402 28.0659L62.0602 20.0259L61.0599 18.2941ZM48.5462 26.7771C46.8069 23.0501 44.52 20.1924 41.6576 18.2699C38.7904 16.3442 35.4099 15.4 31.56 15.4V17.4C35.0701 17.4 38.0496 18.2558 40.5424 19.9301C43.04 21.6076 45.1131 24.1499 46.7338 27.6229L48.5462 26.7771ZM31.56 15.4C27.9707 15.4 25.0051 16.2353 22.7753 18.0191L24.0247 19.5809C25.7949 18.1647 28.2693 17.4 31.56 17.4V15.4ZM22.7793 18.016C20.6162 19.7284 19.52 22.019 19.52 24.8H21.52C21.52 22.621 22.3438 20.9116 24.0207 19.584L22.7793 18.016ZM19.52 24.8C19.52 27.7615 20.7528 30.208 23.1461 32.0693L24.3739 30.4906C22.4472 28.992 21.52 27.1185 21.52 24.8H19.52ZM23.1788 32.0937C25.5639 33.7974 29.9455 35.5957 36.1859 37.5158L36.7741 35.6042C30.5345 33.6843 26.4361 31.9626 24.3412 30.4663L23.1788 32.0937ZM36.1817 37.5145C38.7374 38.3131 40.6358 38.9464 41.8889 39.4163L42.5911 37.5437C41.2842 37.0536 39.3426 36.4069 36.7783 35.6055L36.1817 37.5145ZM41.9578 39.4394C43.2623 39.823 45.0206 40.4854 47.2461 41.4391L48.0339 39.6009C45.7794 38.6346 43.9377 37.937 42.5222 37.5206L41.9578 39.4394ZM47.2854 41.455C49.5776 42.3245 51.2569 43.1331 52.3653 43.872L53.4747 42.2079C52.1831 41.3469 50.3424 40.4755 47.9947 39.585L47.2854 41.455ZM52.39 43.888C53.6163 44.6544 55.0163 45.7022 56.5924 47.0419L57.8877 45.5181C56.2638 44.1377 54.7837 43.0256 53.45 42.192L52.39 43.888ZM56.5924 47.0419C58.1249 48.3446 59.2377 49.655 59.9658 50.9656L61.7142 49.9944C60.8423 48.425 59.5551 46.9354 57.8877 45.5181L56.5924 47.0419ZM59.9867 51.0014C60.8055 52.3412 61.4927 54.008 62.0344 56.02L63.9656 55.5C63.3873 53.352 62.6345 51.4987 61.6933 49.9585L59.9867 51.0014ZM62.0476 56.0648C62.6519 57.9533 62.96 60.0489 62.96 62.36H64.96C64.96 59.8711 64.6281 57.5667 63.9524 55.4552L62.0476 56.0648ZM62.96 62.36C62.96 69.8396 60.2403 75.7038 54.814 80.0602L56.066 81.6198C61.9997 76.8562 64.96 70.4004 64.96 62.36H62.96ZM54.8086 80.0646C49.4281 84.4458 42.3493 86.68 33.48 86.68V88.68C42.6907 88.68 50.2519 86.3542 56.0714 81.6154L54.8086 80.0646ZM144.855 75.08L145.559 75.7905L145.562 75.7871L144.855 75.08ZM82.935 75.08L82.2245 75.7838L82.2313 75.7905L82.935 75.08ZM82.935 13.04L82.2279 12.3329L82.935 13.04ZM144.855 13.04L144.148 13.7471L144.151 13.7504L144.855 13.04ZM94.575 63.8L93.8679 64.5071L93.8734 64.5126L94.575 63.8ZM133.215 63.8L133.917 64.5126L133.922 64.5071L133.215 63.8ZM133.215 24.2L133.922 23.4929L133.215 24.2ZM94.575 24.2L93.8679 23.4929L94.575 24.2ZM144.151 74.3696C135.862 82.5802 125.797 86.68 113.895 86.68V88.68C126.313 88.68 136.888 84.3798 145.559 75.7905L144.151 74.3696ZM113.895 86.68C101.993 86.68 91.9276 82.5802 83.6387 74.3696L82.2313 75.7905C90.9024 84.3798 101.477 88.68 113.895 88.68V86.68ZM83.6455 74.3763C75.4362 66.0888 71.335 55.9839 71.335 44H69.335C69.335 56.4961 73.6338 67.1112 82.2245 75.7837L83.6455 74.3763ZM71.335 44C71.335 32.0162 75.4359 21.9533 83.6421 13.7471L82.2279 12.3329C73.6341 20.9267 69.335 31.5038 69.335 44H71.335ZM83.6421 13.7471C91.9316 5.45756 101.996 1.31999 113.895 1.31999V-0.680006C101.474 -0.680006 90.8984 3.66243 82.2279 12.3329L83.6421 13.7471ZM113.895 1.31999C125.794 1.31999 135.858 5.45756 144.148 13.7471L145.562 12.3329C136.892 3.66243 126.316 -0.680006 113.895 -0.680006V1.31999ZM144.151 13.7504C152.436 21.9574 156.575 32.0192 156.575 44H158.575C158.575 31.5008 154.234 20.9226 145.559 12.3295L144.151 13.7504ZM156.575 44C156.575 55.9809 152.436 66.0847 144.148 74.3729L145.562 75.7871C154.234 67.1153 158.575 56.4991 158.575 44H156.575ZM93.8734 64.5126C99.2711 69.8272 105.968 72.48 113.895 72.48V70.48C106.462 70.48 100.279 68.0128 95.2766 63.0874L93.8734 64.5126ZM113.895 72.48C121.822 72.48 128.519 69.8272 133.917 64.5126L132.513 63.0874C127.511 68.0128 121.328 70.48 113.895 70.48V72.48ZM133.922 64.5071C139.327 59.1022 142.015 52.2395 142.015 44H140.015C140.015 51.7605 137.503 58.0978 132.508 63.0929L133.922 64.5071ZM142.015 44C142.015 35.7605 139.327 28.8978 133.922 23.4929L132.508 24.9071C137.503 29.9022 140.015 36.2395 140.015 44H142.015ZM133.922 23.4929C128.525 18.0963 121.827 15.4 113.895 15.4V17.4C121.323 17.4 127.505 19.9037 132.508 24.9071L133.922 23.4929ZM113.895 15.4C105.963 15.4 99.2645 18.0963 93.8679 23.4929L95.2821 24.9071C100.285 19.9037 106.467 17.4 113.895 17.4V15.4ZM93.8679 23.4929C88.4629 28.8978 85.775 35.7605 85.775 44H87.775C87.775 36.2395 90.2871 29.9022 95.2821 24.9071L93.8679 23.4929ZM85.775 44C85.775 52.2395 88.4629 59.1022 93.8679 64.5071L95.2821 63.0929C90.2871 58.0978 87.775 51.7605 87.775 44H85.775ZM185.774 70.16H184.774V71.16H185.774V70.16ZM217.814 70.16H218.814V69.16H217.814V70.16ZM217.814 86V87H218.814V86H217.814ZM169.214 86H168.214V87H169.214V86ZM169.214 1.99999V0.999994H168.214V1.99999H169.214ZM185.774 1.99999H186.774V0.999994H185.774V1.99999ZM185.774 71.16H217.814V69.16H185.774V71.16ZM216.814 70.16V86H218.814V70.16H216.814ZM217.814 85H169.214V87H217.814V85ZM170.214 86V1.99999H168.214V86H170.214ZM169.214 2.99999H185.774V0.999994H169.214V2.99999ZM184.774 1.99999V70.16H186.774V1.99999H184.774ZM283.566 86L282.617 86.3162L282.845 87H283.566V86ZM278.526 70.88L279.474 70.5638L279.246 69.88H278.526V70.88ZM245.046 70.88V69.88H244.325L244.097 70.5638L245.046 70.88ZM240.006 86V87H240.726L240.954 86.3162L240.006 86ZM222.126 86L221.182 85.6696L220.716 87H222.126V86ZM251.526 1.99999V0.999994H250.816L250.582 1.66964L251.526 1.99999ZM272.046 1.99999L272.989 1.66844L272.754 0.999994H272.046V1.99999ZM301.566 86V87H302.977L302.509 85.6684L301.566 86ZM250.326 55.4L249.378 55.0818L248.935 56.4H250.326V55.4ZM273.366 55.4V56.4H274.756L274.314 55.0818L273.366 55.4ZM261.846 21.08L262.794 20.7618L261.846 17.9375L260.898 20.7618L261.846 21.08ZM284.514 85.6838L279.474 70.5638L277.577 71.1962L282.617 86.3162L284.514 85.6838ZM278.526 69.88H245.046V71.88H278.526V69.88ZM244.097 70.5638L239.057 85.6838L240.954 86.3162L245.994 71.1962L244.097 70.5638ZM240.006 85H222.126V87H240.006V85ZM223.069 86.3304L252.469 2.33035L250.582 1.66964L221.182 85.6696L223.069 86.3304ZM251.526 2.99999H272.046V0.999994H251.526V2.99999ZM271.102 2.33154L300.622 86.3316L302.509 85.6684L272.989 1.66844L271.102 2.33154ZM301.566 85H283.566V87H301.566V85ZM250.326 56.4H273.366V54.4H250.326V56.4ZM274.314 55.0818L262.794 20.7618L260.898 21.3982L272.418 55.7182L274.314 55.0818ZM260.898 20.7618L249.378 55.0818L251.274 55.7182L262.794 21.3982L260.898 20.7618ZM355.802 86L354.937 86.5019L355.226 87H355.802V86ZM338.882 56.84L339.747 56.3381L339.458 55.84H338.882V56.84ZM326.282 56.84V55.84H325.282V56.84H326.282ZM326.282 86V87H327.282V86H326.282ZM309.722 86H308.722V87H309.722V86ZM309.722 1.99999V0.999994H308.722V1.99999H309.722ZM363.122 10.16L363.829 9.45289L363.122 10.16ZM366.842 44.36L367.672 44.9182L367.676 44.9113L366.842 44.36ZM355.082 54.32L354.665 53.4112L353.66 53.8726L354.22 54.8263L355.082 54.32ZM373.682 86V87H375.429L374.544 85.4937L373.682 86ZM326.282 17.48V16.48H325.282V17.48H326.282ZM326.282 42.32H325.282V43.32H326.282V42.32ZM351.362 38.72L352.093 39.4023L352.099 39.3963L352.104 39.3903L351.362 38.72ZM351.362 21.08L350.631 21.7623L351.362 21.08ZM356.667 85.4981L339.747 56.3381L338.017 57.3419L354.937 86.5019L356.667 85.4981ZM338.882 55.84H326.282V57.84H338.882V55.84ZM325.282 56.84V86H327.282V56.84H325.282ZM326.282 85H309.722V87H326.282V85ZM310.722 86V1.99999H308.722V86H310.722ZM309.722 2.99999H343.322V0.999994H309.722V2.99999ZM343.322 2.99999C350.819 2.99999 357.164 5.61646 362.415 10.8671L363.829 9.45289C358.2 3.82353 351.345 0.999994 343.322 0.999994V2.99999ZM362.415 10.8671C367.668 16.1199 370.282 22.4257 370.282 29.84H372.282C372.282 21.8943 369.456 15.0801 363.829 9.45289L362.415 10.8671ZM370.282 29.84C370.282 34.8373 368.863 39.4866 366.008 43.8087L367.676 44.9113C370.741 40.2734 372.282 35.2427 372.282 29.84H370.282ZM366.012 43.8018C363.156 48.0472 359.38 51.2469 354.665 53.4112L355.499 55.2288C360.544 52.9131 364.608 49.4728 367.672 44.9182L366.012 43.8018ZM354.22 54.8263L372.82 86.5063L374.544 85.4937L355.944 53.8137L354.22 54.8263ZM373.682 85H355.802V87H373.682V85ZM325.282 17.48V42.32H327.282V17.48H325.282ZM326.282 43.32H343.322V41.32H326.282V43.32ZM343.322 43.32C346.735 43.32 349.675 41.993 352.093 39.4023L350.631 38.0377C348.569 40.2469 346.149 41.32 343.322 41.32V43.32ZM352.104 39.3903C354.515 36.7206 355.722 33.5196 355.722 29.84H353.722C353.722 33.0404 352.688 35.7594 350.62 38.0497L352.104 39.3903ZM355.722 29.84C355.722 26.1601 354.515 22.9924 352.093 20.3977L350.631 21.7623C352.689 23.9676 353.722 26.6399 353.722 29.84H355.722ZM352.093 20.3977C349.675 17.8069 346.735 16.48 343.322 16.48V18.48C346.149 18.48 348.569 19.553 350.631 21.7623L352.093 20.3977ZM343.322 16.48H326.282V18.48H343.322V16.48Z" fill="white"/>
</svg>
